<mxfile host="app.diagrams.net" agent="Mozilla/5.0 (Windows NT 10.0; Win64; x64) AppleWebKit/537.36 (KHTML, like Gecko) Chrome/132.0.0.0 YaBrowser/25.2.0.0 Safari/537.36" version="26.1.3" pages="3">
  <diagram name="Администратор" id="IW5ysn9Oq1Sp2YedZpdY">
    <mxGraphModel dx="2213" dy="791" grid="1" gridSize="10" guides="1" tooltips="1" connect="1" arrows="1" fold="1" page="1" pageScale="1" pageWidth="827" pageHeight="1169" math="0" shadow="0">
      <root>
        <mxCell id="0" />
        <mxCell id="1" parent="0" />
        <mxCell id="S-bI5RA-M3Y5ncMMz4Eh-91" value="Сведения о выдаче книги" style="strokeWidth=1;shadow=0;dashed=0;align=center;html=1;shape=mxgraph.mockup.containers.window;align=left;verticalAlign=top;spacingLeft=8;strokeColor2=#008cff;strokeColor3=#c4c4c4;fontColor=#666666;mainText=;fontSize=17;labelBackgroundColor=none;whiteSpace=wrap;" parent="1" vertex="1">
          <mxGeometry x="300" y="899" width="304" height="270" as="geometry" />
        </mxCell>
        <mxCell id="fHTbIxr9rq47aHXBAycH-9" value="Главная" style="strokeWidth=1;shadow=0;dashed=0;align=center;html=1;shape=mxgraph.mockup.containers.window;align=left;verticalAlign=top;spacingLeft=8;strokeColor2=#008cff;strokeColor3=#c4c4c4;fontColor=#666666;mainText=;fontSize=17;labelBackgroundColor=none;whiteSpace=wrap;" parent="1" vertex="1">
          <mxGeometry x="300" y="20" width="540" height="360" as="geometry" />
        </mxCell>
        <mxCell id="fHTbIxr9rq47aHXBAycH-10" value="" style="rounded=0;whiteSpace=wrap;html=1;" parent="1" vertex="1">
          <mxGeometry x="300" y="50" width="140" height="330" as="geometry" />
        </mxCell>
        <mxCell id="fHTbIxr9rq47aHXBAycH-11" value="Читатели" style="rounded=0;whiteSpace=wrap;html=1;fillColor=#f5f5f5;fontColor=#333333;strokeColor=#666666;" parent="1" vertex="1">
          <mxGeometry x="310" y="155" width="120" height="40" as="geometry" />
        </mxCell>
        <mxCell id="fHTbIxr9rq47aHXBAycH-12" value="Книги" style="rounded=0;whiteSpace=wrap;html=1;fillColor=#dae8fc;strokeColor=#6c8ebf;" parent="1" vertex="1">
          <mxGeometry x="310" y="95" width="120" height="40" as="geometry" />
        </mxCell>
        <mxCell id="fHTbIxr9rq47aHXBAycH-13" value="Заявки на книги" style="rounded=0;whiteSpace=wrap;html=1;fillColor=#f5f5f5;fontColor=#333333;strokeColor=#666666;" parent="1" vertex="1">
          <mxGeometry x="310" y="215" width="120" height="40" as="geometry" />
        </mxCell>
        <mxCell id="fHTbIxr9rq47aHXBAycH-14" value="Выход" style="rounded=0;whiteSpace=wrap;html=1;fillColor=#f5f5f5;fontColor=#333333;strokeColor=#666666;" parent="1" vertex="1">
          <mxGeometry x="310" y="330" width="120" height="40" as="geometry" />
        </mxCell>
        <mxCell id="S-bI5RA-M3Y5ncMMz4Eh-178" style="edgeStyle=orthogonalEdgeStyle;rounded=0;orthogonalLoop=1;jettySize=auto;html=1;exitX=0.5;exitY=1;exitDx=0;exitDy=0;" parent="1" source="fHTbIxr9rq47aHXBAycH-18" edge="1">
          <mxGeometry relative="1" as="geometry">
            <mxPoint x="1360" y="440" as="targetPoint" />
            <Array as="points">
              <mxPoint x="640" y="390" />
              <mxPoint x="1360" y="390" />
              <mxPoint x="1360" y="410" />
            </Array>
          </mxGeometry>
        </mxCell>
        <mxCell id="S-bI5RA-M3Y5ncMMz4Eh-179" value="Выделена запись" style="edgeLabel;html=1;align=center;verticalAlign=middle;resizable=0;points=[];" parent="S-bI5RA-M3Y5ncMMz4Eh-178" vertex="1" connectable="0">
          <mxGeometry x="-0.0995" y="3" relative="1" as="geometry">
            <mxPoint as="offset" />
          </mxGeometry>
        </mxCell>
        <mxCell id="fHTbIxr9rq47aHXBAycH-18" value="Редактировать" style="rounded=0;whiteSpace=wrap;html=1;fillColor=#f5f5f5;fontColor=#333333;strokeColor=#666666;" parent="1" vertex="1">
          <mxGeometry x="580" y="330" width="120" height="40" as="geometry" />
        </mxCell>
        <mxCell id="S-bI5RA-M3Y5ncMMz4Eh-177" style="edgeStyle=orthogonalEdgeStyle;rounded=0;orthogonalLoop=1;jettySize=auto;html=1;exitX=0.5;exitY=1;exitDx=0;exitDy=0;" parent="1" source="fHTbIxr9rq47aHXBAycH-19" edge="1">
          <mxGeometry relative="1" as="geometry">
            <mxPoint x="1070" y="440" as="targetPoint" />
          </mxGeometry>
        </mxCell>
        <mxCell id="fHTbIxr9rq47aHXBAycH-19" value="Добавить" style="rounded=0;whiteSpace=wrap;html=1;fillColor=#f5f5f5;fontColor=#333333;strokeColor=#666666;" parent="1" vertex="1">
          <mxGeometry x="450" y="330" width="120" height="40" as="geometry" />
        </mxCell>
        <mxCell id="fHTbIxr9rq47aHXBAycH-20" value="Удалить" style="rounded=0;whiteSpace=wrap;html=1;fillColor=#f5f5f5;fontColor=#333333;strokeColor=#666666;" parent="1" vertex="1">
          <mxGeometry x="710" y="330" width="120" height="40" as="geometry" />
        </mxCell>
        <mxCell id="fHTbIxr9rq47aHXBAycH-38" value="Главная" style="strokeWidth=1;shadow=0;dashed=0;align=center;html=1;shape=mxgraph.mockup.containers.window;align=left;verticalAlign=top;spacingLeft=8;strokeColor2=#008cff;strokeColor3=#c4c4c4;fontColor=#666666;mainText=;fontSize=17;labelBackgroundColor=none;whiteSpace=wrap;" parent="1" vertex="1">
          <mxGeometry x="-474.5" y="500" width="540" height="360" as="geometry" />
        </mxCell>
        <mxCell id="fHTbIxr9rq47aHXBAycH-39" value="" style="rounded=0;whiteSpace=wrap;html=1;" parent="1" vertex="1">
          <mxGeometry x="-474.5" y="530" width="140" height="330" as="geometry" />
        </mxCell>
        <mxCell id="fHTbIxr9rq47aHXBAycH-40" value="Читатели" style="rounded=0;whiteSpace=wrap;html=1;fillColor=#dae8fc;strokeColor=#6c8ebf;" parent="1" vertex="1">
          <mxGeometry x="-464.5" y="635" width="120" height="40" as="geometry" />
        </mxCell>
        <mxCell id="fHTbIxr9rq47aHXBAycH-41" value="Книги" style="rounded=0;whiteSpace=wrap;html=1;fillColor=#f5f5f5;strokeColor=#666666;fontColor=#333333;" parent="1" vertex="1">
          <mxGeometry x="-464.5" y="575" width="120" height="40" as="geometry" />
        </mxCell>
        <mxCell id="fHTbIxr9rq47aHXBAycH-42" value="Заявки на книги" style="rounded=0;whiteSpace=wrap;html=1;fillColor=#f5f5f5;fontColor=#333333;strokeColor=#666666;" parent="1" vertex="1">
          <mxGeometry x="-464.5" y="695" width="120" height="40" as="geometry" />
        </mxCell>
        <mxCell id="fHTbIxr9rq47aHXBAycH-43" value="Выход" style="rounded=0;whiteSpace=wrap;html=1;fillColor=#f5f5f5;fontColor=#333333;strokeColor=#666666;" parent="1" vertex="1">
          <mxGeometry x="-464.5" y="810" width="120" height="40" as="geometry" />
        </mxCell>
        <mxCell id="fHTbIxr9rq47aHXBAycH-44" value="Редактировать" style="rounded=0;whiteSpace=wrap;html=1;fillColor=#f5f5f5;fontColor=#333333;strokeColor=#666666;" parent="1" vertex="1">
          <mxGeometry x="-194.5" y="810" width="120" height="40" as="geometry" />
        </mxCell>
        <mxCell id="fHTbIxr9rq47aHXBAycH-45" value="Добавить" style="rounded=0;whiteSpace=wrap;html=1;fillColor=#f5f5f5;fontColor=#333333;strokeColor=#666666;" parent="1" vertex="1">
          <mxGeometry x="-324.5" y="810" width="120" height="40" as="geometry" />
        </mxCell>
        <mxCell id="fHTbIxr9rq47aHXBAycH-46" value="Удалить" style="rounded=0;whiteSpace=wrap;html=1;fillColor=#f5f5f5;fontColor=#333333;strokeColor=#666666;" parent="1" vertex="1">
          <mxGeometry x="-64.5" y="810" width="120" height="40" as="geometry" />
        </mxCell>
        <mxCell id="fHTbIxr9rq47aHXBAycH-88" value="Главная" style="strokeWidth=1;shadow=0;dashed=0;align=center;html=1;shape=mxgraph.mockup.containers.window;align=left;verticalAlign=top;spacingLeft=8;strokeColor2=#008cff;strokeColor3=#c4c4c4;fontColor=#666666;mainText=;fontSize=17;labelBackgroundColor=none;whiteSpace=wrap;" parent="1" vertex="1">
          <mxGeometry x="300" y="500" width="540" height="355" as="geometry" />
        </mxCell>
        <mxCell id="fHTbIxr9rq47aHXBAycH-89" value="" style="rounded=0;whiteSpace=wrap;html=1;" parent="1" vertex="1">
          <mxGeometry x="300" y="530" width="140" height="325" as="geometry" />
        </mxCell>
        <mxCell id="fHTbIxr9rq47aHXBAycH-90" value="Читатели" style="rounded=0;whiteSpace=wrap;html=1;fillColor=#f5f5f5;fontColor=#333333;strokeColor=#666666;" parent="1" vertex="1">
          <mxGeometry x="310" y="630" width="120" height="40" as="geometry" />
        </mxCell>
        <mxCell id="fHTbIxr9rq47aHXBAycH-91" value="Книги" style="rounded=0;whiteSpace=wrap;html=1;fillColor=#f5f5f5;strokeColor=#666666;fontColor=#333333;" parent="1" vertex="1">
          <mxGeometry x="310" y="570" width="120" height="40" as="geometry" />
        </mxCell>
        <mxCell id="fHTbIxr9rq47aHXBAycH-92" value="Заявки на книги" style="rounded=0;whiteSpace=wrap;html=1;fillColor=#dae8fc;strokeColor=#6c8ebf;" parent="1" vertex="1">
          <mxGeometry x="310" y="690" width="120" height="40" as="geometry" />
        </mxCell>
        <mxCell id="fHTbIxr9rq47aHXBAycH-93" value="Выход" style="rounded=0;whiteSpace=wrap;html=1;fillColor=#f5f5f5;fontColor=#333333;strokeColor=#666666;" parent="1" vertex="1">
          <mxGeometry x="310" y="805" width="120" height="40" as="geometry" />
        </mxCell>
        <mxCell id="fHTbIxr9rq47aHXBAycH-94" value="Редактировать" style="rounded=0;whiteSpace=wrap;html=1;fillColor=#f5f5f5;fontColor=#333333;strokeColor=#666666;" parent="1" vertex="1">
          <mxGeometry x="580" y="805" width="120" height="40" as="geometry" />
        </mxCell>
        <mxCell id="fHTbIxr9rq47aHXBAycH-95" value="Добавить" style="rounded=0;whiteSpace=wrap;html=1;fillColor=#f5f5f5;fontColor=#333333;strokeColor=#666666;" parent="1" vertex="1">
          <mxGeometry x="450" y="805" width="120" height="40" as="geometry" />
        </mxCell>
        <mxCell id="fHTbIxr9rq47aHXBAycH-96" value="Удалить" style="rounded=0;whiteSpace=wrap;html=1;fillColor=#f5f5f5;fontColor=#333333;strokeColor=#666666;" parent="1" vertex="1">
          <mxGeometry x="710" y="805" width="120" height="40" as="geometry" />
        </mxCell>
        <mxCell id="fHTbIxr9rq47aHXBAycH-128" value="" style="verticalLabelPosition=bottom;shadow=0;dashed=0;align=center;html=1;verticalAlign=top;strokeWidth=1;shape=mxgraph.mockup.navigation.scrollBar;strokeColor=#999999;barPos=20;fillColor2=#99ddff;strokeColor2=none;direction=north;rotation=0;" parent="1" vertex="1">
          <mxGeometry x="810" y="95" width="20" height="210" as="geometry" />
        </mxCell>
        <mxCell id="fHTbIxr9rq47aHXBAycH-129" value="" style="verticalLabelPosition=bottom;shadow=0;dashed=0;align=center;html=1;verticalAlign=top;strokeWidth=1;shape=mxgraph.mockup.navigation.scrollBar;strokeColor=#999999;barPos=20;fillColor2=#99ddff;strokeColor2=none;direction=north;rotation=0;" parent="1" vertex="1">
          <mxGeometry x="35.5" y="574" width="20" height="209" as="geometry" />
        </mxCell>
        <mxCell id="fHTbIxr9rq47aHXBAycH-132" value="" style="verticalLabelPosition=bottom;shadow=0;dashed=0;align=center;html=1;verticalAlign=top;strokeWidth=1;shape=mxgraph.mockup.navigation.scrollBar;strokeColor=#999999;barPos=20;fillColor2=#99ddff;strokeColor2=none;direction=north;" parent="1" vertex="1">
          <mxGeometry x="810" y="570" width="20" height="220" as="geometry" />
        </mxCell>
        <mxCell id="fHTbIxr9rq47aHXBAycH-111" value="" style="rounded=0;whiteSpace=wrap;html=1;container=0;" parent="1" vertex="1">
          <mxGeometry x="450" y="570" width="360" height="220" as="geometry" />
        </mxCell>
        <mxCell id="fHTbIxr9rq47aHXBAycH-124" value="" style="group;fillColor=#dae8fc;strokeColor=#6c8ebf;" parent="1" vertex="1" connectable="0">
          <mxGeometry x="457.20000000000005" y="579" width="345.6" height="96.95" as="geometry" />
        </mxCell>
        <mxCell id="fHTbIxr9rq47aHXBAycH-114" value="&lt;div&gt;Читатель: текст&amp;nbsp;&lt;/div&gt;Номер читательского билета: текст&lt;div&gt;&lt;div&gt;Книга: текст&amp;nbsp;&lt;/div&gt;Автор: текст&lt;/div&gt;&lt;div&gt;Дата выдачи: 09.04.2024&amp;nbsp;&lt;/div&gt;&lt;div&gt;Дата возврата: 25.04.2024&lt;/div&gt;" style="text;html=1;align=left;verticalAlign=middle;whiteSpace=wrap;rounded=0;container=0;" parent="fHTbIxr9rq47aHXBAycH-124" vertex="1">
          <mxGeometry x="3.920000000000001" y="12.468635170603676" width="206.40000000000006" height="72.13996062992128" as="geometry" />
        </mxCell>
        <mxCell id="fHTbIxr9rq47aHXBAycH-125" value="" style="group" parent="1" vertex="1" connectable="0">
          <mxGeometry x="457.68000000000006" y="683" width="345.6" height="97.91" as="geometry" />
        </mxCell>
        <mxCell id="fHTbIxr9rq47aHXBAycH-126" value="" style="rounded=0;whiteSpace=wrap;html=1;container=0;" parent="fHTbIxr9rq47aHXBAycH-125" vertex="1">
          <mxGeometry width="345.6" height="97.91" as="geometry" />
        </mxCell>
        <mxCell id="orR1T6i9TAgb9a2kDOi2-1" value="&lt;div&gt;Читатель: текст&amp;nbsp;&lt;/div&gt;Номер читательского билета: текст&lt;div&gt;&lt;div&gt;Книга: текст&amp;nbsp;&lt;/div&gt;Автор: текст&lt;/div&gt;&lt;div&gt;Дата выдачи: 09.04.2024&amp;nbsp;&lt;/div&gt;&lt;div&gt;Дата возврата: 25.04.2024&lt;/div&gt;" style="text;html=1;align=left;verticalAlign=middle;whiteSpace=wrap;rounded=0;container=0;" parent="fHTbIxr9rq47aHXBAycH-125" vertex="1">
          <mxGeometry x="6.160000000000082" y="12.52666894132261" width="206.4" height="72.8523792026456" as="geometry" />
        </mxCell>
        <mxCell id="orR1T6i9TAgb9a2kDOi2-2" value="&lt;b&gt;&lt;font style=&quot;font-size: 16px;&quot;&gt;Заголовок&lt;/font&gt;&lt;/b&gt;" style="text;html=1;align=center;verticalAlign=middle;whiteSpace=wrap;rounded=0;" parent="1" vertex="1">
          <mxGeometry x="450" y="535" width="90" height="30" as="geometry" />
        </mxCell>
        <mxCell id="fHTbIxr9rq47aHXBAycH-66" value="" style="rounded=0;whiteSpace=wrap;html=1;container=0;" parent="1" vertex="1">
          <mxGeometry x="-322.5" y="574" width="358" height="209" as="geometry" />
        </mxCell>
        <mxCell id="fHTbIxr9rq47aHXBAycH-72" value="" style="rounded=0;whiteSpace=wrap;html=1;container=0;fillColor=#dae8fc;strokeColor=#6c8ebf;" parent="1" vertex="1">
          <mxGeometry x="-314.86266666666666" y="583" width="343.68" height="40" as="geometry" />
        </mxCell>
        <mxCell id="fHTbIxr9rq47aHXBAycH-75" value="" style="rounded=0;whiteSpace=wrap;html=1;container=0;" parent="1" vertex="1">
          <mxGeometry x="-314.86266666666666" y="633" width="343.68" height="40" as="geometry" />
        </mxCell>
        <mxCell id="fHTbIxr9rq47aHXBAycH-78" value="" style="rounded=0;whiteSpace=wrap;html=1;container=0;" parent="1" vertex="1">
          <mxGeometry x="-314.86266666666666" y="683" width="343.68" height="40" as="geometry" />
        </mxCell>
        <mxCell id="fHTbIxr9rq47aHXBAycH-81" value="" style="rounded=0;whiteSpace=wrap;html=1;container=0;" parent="1" vertex="1">
          <mxGeometry x="-314.86266666666666" y="733" width="343.68" height="40" as="geometry" />
        </mxCell>
        <mxCell id="fHTbIxr9rq47aHXBAycH-83" value="&lt;div&gt;ФИО: текст&amp;nbsp;&lt;/div&gt;Номер читательского билета: текст" style="text;html=1;align=left;verticalAlign=middle;whiteSpace=wrap;rounded=0;container=0;" parent="1" vertex="1">
          <mxGeometry x="-311.9986666666666" y="588" width="205.25333333333333" height="30" as="geometry" />
        </mxCell>
        <mxCell id="fHTbIxr9rq47aHXBAycH-84" value="&lt;div&gt;ФИО: текст&amp;nbsp;&lt;/div&gt;Номер читательского билета: текст" style="text;html=1;align=left;verticalAlign=middle;whiteSpace=wrap;rounded=0;container=0;" parent="1" vertex="1">
          <mxGeometry x="-310.08933333333334" y="638" width="205.25333333333333" height="30" as="geometry" />
        </mxCell>
        <mxCell id="fHTbIxr9rq47aHXBAycH-85" value="&lt;div&gt;ФИО: текст&amp;nbsp;&lt;/div&gt;Номер читательского билета: текст" style="text;html=1;align=left;verticalAlign=middle;whiteSpace=wrap;rounded=0;container=0;" parent="1" vertex="1">
          <mxGeometry x="-310.08933333333334" y="688" width="205.25333333333333" height="30" as="geometry" />
        </mxCell>
        <mxCell id="fHTbIxr9rq47aHXBAycH-86" value="&lt;div&gt;ФИО: текст&amp;nbsp;&lt;/div&gt;Номер читательского билета: текст" style="text;html=1;align=left;verticalAlign=middle;whiteSpace=wrap;rounded=0;container=0;" parent="1" vertex="1">
          <mxGeometry x="-310.08933333333334" y="738" width="205.25333333333333" height="30" as="geometry" />
        </mxCell>
        <mxCell id="orR1T6i9TAgb9a2kDOi2-3" value="&lt;b&gt;&lt;font style=&quot;font-size: 16px;&quot;&gt;Заголовок&lt;/font&gt;&lt;/b&gt;" style="text;html=1;align=center;verticalAlign=middle;whiteSpace=wrap;rounded=0;" parent="1" vertex="1">
          <mxGeometry x="-322.5" y="540" width="90" height="30" as="geometry" />
        </mxCell>
        <mxCell id="orR1T6i9TAgb9a2kDOi2-5" value="" style="group;rotation=90;" parent="1" vertex="1" connectable="0">
          <mxGeometry x="452" y="95" width="358" height="210" as="geometry" />
        </mxCell>
        <mxCell id="fHTbIxr9rq47aHXBAycH-15" value="" style="rounded=0;whiteSpace=wrap;html=1;" parent="orR1T6i9TAgb9a2kDOi2-5" vertex="1">
          <mxGeometry width="358" height="210" as="geometry" />
        </mxCell>
        <mxCell id="fHTbIxr9rq47aHXBAycH-27" value="" style="group" parent="orR1T6i9TAgb9a2kDOi2-5" vertex="1" connectable="0">
          <mxGeometry x="7.637333333333345" y="60" width="343.68" height="40" as="geometry" />
        </mxCell>
        <mxCell id="fHTbIxr9rq47aHXBAycH-28" value="" style="rounded=0;whiteSpace=wrap;html=1;" parent="fHTbIxr9rq47aHXBAycH-27" vertex="1">
          <mxGeometry width="343.68" height="40" as="geometry" />
        </mxCell>
        <mxCell id="fHTbIxr9rq47aHXBAycH-29" value="&lt;div&gt;Название: текст&amp;nbsp;&lt;/div&gt;Автор: текст" style="text;html=1;align=left;verticalAlign=middle;whiteSpace=wrap;rounded=0;" parent="fHTbIxr9rq47aHXBAycH-27" vertex="1">
          <mxGeometry x="4.773333333333333" y="5" width="105.01333333333334" height="30" as="geometry" />
        </mxCell>
        <mxCell id="fHTbIxr9rq47aHXBAycH-30" value="" style="group" parent="orR1T6i9TAgb9a2kDOi2-5" vertex="1" connectable="0">
          <mxGeometry x="7.637333333333345" y="110" width="343.68" height="40" as="geometry" />
        </mxCell>
        <mxCell id="fHTbIxr9rq47aHXBAycH-31" value="" style="rounded=0;whiteSpace=wrap;html=1;" parent="fHTbIxr9rq47aHXBAycH-30" vertex="1">
          <mxGeometry width="343.68" height="40" as="geometry" />
        </mxCell>
        <mxCell id="fHTbIxr9rq47aHXBAycH-32" value="&lt;div&gt;Название: текст&amp;nbsp;&lt;/div&gt;Автор: текст" style="text;html=1;align=left;verticalAlign=middle;whiteSpace=wrap;rounded=0;" parent="fHTbIxr9rq47aHXBAycH-30" vertex="1">
          <mxGeometry x="4.773333333333333" y="5" width="105.01333333333334" height="30" as="geometry" />
        </mxCell>
        <mxCell id="fHTbIxr9rq47aHXBAycH-33" value="" style="group" parent="orR1T6i9TAgb9a2kDOi2-5" vertex="1" connectable="0">
          <mxGeometry x="7.637333333333345" y="160" width="343.68" height="40" as="geometry" />
        </mxCell>
        <mxCell id="fHTbIxr9rq47aHXBAycH-34" value="" style="rounded=0;whiteSpace=wrap;html=1;" parent="fHTbIxr9rq47aHXBAycH-33" vertex="1">
          <mxGeometry width="343.68" height="40" as="geometry" />
        </mxCell>
        <mxCell id="fHTbIxr9rq47aHXBAycH-35" value="&lt;div&gt;Название: текст&amp;nbsp;&lt;/div&gt;Автор: текст" style="text;html=1;align=left;verticalAlign=middle;whiteSpace=wrap;rounded=0;" parent="fHTbIxr9rq47aHXBAycH-33" vertex="1">
          <mxGeometry x="4.773333333333333" y="5" width="105.01333333333334" height="30" as="geometry" />
        </mxCell>
        <mxCell id="orR1T6i9TAgb9a2kDOi2-6" value="&lt;b&gt;&lt;font style=&quot;font-size: 16px;&quot;&gt;Заголовок&lt;/font&gt;&lt;/b&gt;" style="text;html=1;align=center;verticalAlign=middle;whiteSpace=wrap;rounded=0;" parent="1" vertex="1">
          <mxGeometry x="452" y="60" width="90" height="30" as="geometry" />
        </mxCell>
        <mxCell id="orR1T6i9TAgb9a2kDOi2-7" value="" style="group" parent="1" vertex="1" connectable="0">
          <mxGeometry x="-70" y="20" width="270" height="370" as="geometry" />
        </mxCell>
        <mxCell id="orR1T6i9TAgb9a2kDOi2-8" value="Авторизация" style="strokeWidth=1;shadow=0;dashed=0;align=center;html=1;shape=mxgraph.mockup.containers.window;align=left;verticalAlign=top;spacingLeft=8;strokeColor2=#008cff;strokeColor3=#c4c4c4;fontColor=#666666;mainText=;fontSize=17;labelBackgroundColor=none;whiteSpace=wrap;" parent="orR1T6i9TAgb9a2kDOi2-7" vertex="1">
          <mxGeometry width="270" height="370" as="geometry" />
        </mxCell>
        <mxCell id="orR1T6i9TAgb9a2kDOi2-9" value="" style="rounded=1;whiteSpace=wrap;html=1;container=0;" parent="orR1T6i9TAgb9a2kDOi2-7" vertex="1">
          <mxGeometry x="30" y="50" width="210" height="300" as="geometry" />
        </mxCell>
        <mxCell id="orR1T6i9TAgb9a2kDOi2-10" value="&lt;font style=&quot;font-size: 14px;&quot;&gt;&lt;b&gt;Заголовок&lt;/b&gt;&lt;/font&gt;" style="text;html=1;align=center;verticalAlign=middle;whiteSpace=wrap;rounded=0;container=0;" parent="orR1T6i9TAgb9a2kDOi2-7" vertex="1">
          <mxGeometry x="100" y="53" width="70" height="30" as="geometry" />
        </mxCell>
        <mxCell id="orR1T6i9TAgb9a2kDOi2-11" value="Логин" style="text;html=1;align=center;verticalAlign=middle;whiteSpace=wrap;rounded=0;container=0;" parent="orR1T6i9TAgb9a2kDOi2-7" vertex="1">
          <mxGeometry x="55" y="90" width="60" height="30" as="geometry" />
        </mxCell>
        <mxCell id="orR1T6i9TAgb9a2kDOi2-12" value="" style="rounded=0;whiteSpace=wrap;html=1;container=0;" parent="orR1T6i9TAgb9a2kDOi2-7" vertex="1">
          <mxGeometry x="55" y="120" width="155" height="30" as="geometry" />
        </mxCell>
        <mxCell id="orR1T6i9TAgb9a2kDOi2-13" value="Пароль" style="text;html=1;align=center;verticalAlign=middle;whiteSpace=wrap;rounded=0;container=0;" parent="orR1T6i9TAgb9a2kDOi2-7" vertex="1">
          <mxGeometry x="55" y="160" width="60" height="30" as="geometry" />
        </mxCell>
        <mxCell id="orR1T6i9TAgb9a2kDOi2-14" value="" style="rounded=0;whiteSpace=wrap;html=1;container=0;" parent="orR1T6i9TAgb9a2kDOi2-7" vertex="1">
          <mxGeometry x="55" y="190" width="155" height="30" as="geometry" />
        </mxCell>
        <mxCell id="orR1T6i9TAgb9a2kDOi2-15" value="Войти" style="rounded=0;whiteSpace=wrap;html=1;fillColor=#f5f5f5;fontColor=#333333;strokeColor=#666666;container=0;" parent="orR1T6i9TAgb9a2kDOi2-7" vertex="1">
          <mxGeometry x="55" y="240" width="155" height="30" as="geometry" />
        </mxCell>
        <mxCell id="orR1T6i9TAgb9a2kDOi2-16" value="Новый читатель" style="rounded=0;whiteSpace=wrap;html=1;fillColor=#f5f5f5;fontColor=#333333;strokeColor=#666666;container=0;" parent="orR1T6i9TAgb9a2kDOi2-7" vertex="1">
          <mxGeometry x="55" y="290" width="155" height="30" as="geometry" />
        </mxCell>
        <mxCell id="orR1T6i9TAgb9a2kDOi2-17" value="********" style="strokeWidth=1;shadow=0;dashed=0;align=center;html=1;shape=mxgraph.mockup.forms.pwField;strokeColor=#999999;mainText=;align=left;fontColor=#666666;fontSize=17;spacingLeft=3;" parent="orR1T6i9TAgb9a2kDOi2-7" vertex="1">
          <mxGeometry x="55" y="190" width="155" height="30" as="geometry" />
        </mxCell>
        <mxCell id="S-bI5RA-M3Y5ncMMz4Eh-2" value="Сведения о книге" style="strokeWidth=1;shadow=0;dashed=0;align=center;html=1;shape=mxgraph.mockup.containers.window;align=left;verticalAlign=top;spacingLeft=8;strokeColor2=#008cff;strokeColor3=#c4c4c4;fontColor=#666666;mainText=;fontSize=17;labelBackgroundColor=none;whiteSpace=wrap;" parent="1" vertex="1">
          <mxGeometry x="885" y="441.25" width="306" height="317.5" as="geometry" />
        </mxCell>
        <mxCell id="S-bI5RA-M3Y5ncMMz4Eh-3" value="Шифр" style="text;html=1;align=left;verticalAlign=middle;whiteSpace=wrap;rounded=0;" parent="1" vertex="1">
          <mxGeometry x="901" y="485.75" width="60" height="30" as="geometry" />
        </mxCell>
        <mxCell id="S-bI5RA-M3Y5ncMMz4Eh-4" value="Автор" style="text;html=1;align=left;verticalAlign=middle;whiteSpace=wrap;rounded=0;" parent="1" vertex="1">
          <mxGeometry x="901" y="531" width="60" height="30" as="geometry" />
        </mxCell>
        <mxCell id="S-bI5RA-M3Y5ncMMz4Eh-5" value="Название" style="text;html=1;align=left;verticalAlign=middle;whiteSpace=wrap;rounded=0;" parent="1" vertex="1">
          <mxGeometry x="901" y="576.75" width="60" height="30" as="geometry" />
        </mxCell>
        <mxCell id="S-bI5RA-M3Y5ncMMz4Eh-6" value="Год издания" style="text;html=1;align=left;verticalAlign=middle;whiteSpace=wrap;rounded=0;" parent="1" vertex="1">
          <mxGeometry x="901" y="622.25" width="80" height="30" as="geometry" />
        </mxCell>
        <mxCell id="S-bI5RA-M3Y5ncMMz4Eh-7" value="Количество экземпляров" style="text;html=1;align=left;verticalAlign=middle;whiteSpace=wrap;rounded=0;" parent="1" vertex="1">
          <mxGeometry x="901" y="667.75" width="150" height="30" as="geometry" />
        </mxCell>
        <mxCell id="S-bI5RA-M3Y5ncMMz4Eh-8" value="" style="rounded=0;whiteSpace=wrap;html=1;" parent="1" vertex="1">
          <mxGeometry x="1056" y="482.75" width="120" height="34" as="geometry" />
        </mxCell>
        <mxCell id="S-bI5RA-M3Y5ncMMz4Eh-9" value="+" style="rounded=0;whiteSpace=wrap;html=1;" parent="1" vertex="1">
          <mxGeometry x="1150" y="532.75" width="26" height="28.25" as="geometry" />
        </mxCell>
        <mxCell id="S-bI5RA-M3Y5ncMMz4Eh-10" value="" style="rounded=0;whiteSpace=wrap;html=1;" parent="1" vertex="1">
          <mxGeometry x="1056" y="574.75" width="120" height="34" as="geometry" />
        </mxCell>
        <mxCell id="S-bI5RA-M3Y5ncMMz4Eh-11" value="" style="rounded=0;whiteSpace=wrap;html=1;" parent="1" vertex="1">
          <mxGeometry x="1056" y="666.75" width="120" height="34" as="geometry" />
        </mxCell>
        <mxCell id="S-bI5RA-M3Y5ncMMz4Eh-12" value="" style="rounded=0;whiteSpace=wrap;html=1;" parent="1" vertex="1">
          <mxGeometry x="1056" y="620.25" width="120" height="34" as="geometry" />
        </mxCell>
        <mxCell id="S-bI5RA-M3Y5ncMMz4Eh-13" value="Сохранить" style="rounded=0;whiteSpace=wrap;html=1;fillColor=#f5f5f5;fontColor=#333333;strokeColor=#666666;" parent="1" vertex="1">
          <mxGeometry x="1056" y="712.66" width="120" height="34" as="geometry" />
        </mxCell>
        <mxCell id="S-bI5RA-M3Y5ncMMz4Eh-14" value="Отменить" style="rounded=0;whiteSpace=wrap;html=1;fillColor=#f5f5f5;fontColor=#333333;strokeColor=#666666;" parent="1" vertex="1">
          <mxGeometry x="901" y="712.66" width="120" height="34" as="geometry" />
        </mxCell>
        <mxCell id="S-bI5RA-M3Y5ncMMz4Eh-15" value="Сведения о книге" style="strokeWidth=1;shadow=0;dashed=0;align=center;html=1;shape=mxgraph.mockup.containers.window;align=left;verticalAlign=top;spacingLeft=8;strokeColor2=#008cff;strokeColor3=#c4c4c4;fontColor=#666666;mainText=;fontSize=17;labelBackgroundColor=none;whiteSpace=wrap;" parent="1" vertex="1">
          <mxGeometry x="1258" y="441.25" width="306" height="317.5" as="geometry" />
        </mxCell>
        <mxCell id="S-bI5RA-M3Y5ncMMz4Eh-16" value="Шифр" style="text;html=1;align=left;verticalAlign=middle;whiteSpace=wrap;rounded=0;" parent="1" vertex="1">
          <mxGeometry x="1274" y="485.75" width="60" height="30" as="geometry" />
        </mxCell>
        <mxCell id="S-bI5RA-M3Y5ncMMz4Eh-17" value="Автор" style="text;html=1;align=left;verticalAlign=middle;whiteSpace=wrap;rounded=0;" parent="1" vertex="1">
          <mxGeometry x="1274" y="530.75" width="60" height="30" as="geometry" />
        </mxCell>
        <mxCell id="S-bI5RA-M3Y5ncMMz4Eh-18" value="Название" style="text;html=1;align=left;verticalAlign=middle;whiteSpace=wrap;rounded=0;" parent="1" vertex="1">
          <mxGeometry x="1274" y="576.75" width="60" height="30" as="geometry" />
        </mxCell>
        <mxCell id="S-bI5RA-M3Y5ncMMz4Eh-19" value="Год издания" style="text;html=1;align=left;verticalAlign=middle;whiteSpace=wrap;rounded=0;" parent="1" vertex="1">
          <mxGeometry x="1274" y="622.25" width="80" height="30" as="geometry" />
        </mxCell>
        <mxCell id="S-bI5RA-M3Y5ncMMz4Eh-20" value="Количество экземпляров" style="text;html=1;align=left;verticalAlign=middle;whiteSpace=wrap;rounded=0;" parent="1" vertex="1">
          <mxGeometry x="1274" y="667.75" width="150" height="30" as="geometry" />
        </mxCell>
        <mxCell id="S-bI5RA-M3Y5ncMMz4Eh-21" value="Текст" style="rounded=0;whiteSpace=wrap;html=1;" parent="1" vertex="1">
          <mxGeometry x="1429" y="482.75" width="120" height="34" as="geometry" />
        </mxCell>
        <mxCell id="S-bI5RA-M3Y5ncMMz4Eh-23" value="Текст" style="rounded=0;whiteSpace=wrap;html=1;" parent="1" vertex="1">
          <mxGeometry x="1429" y="574.75" width="120" height="34" as="geometry" />
        </mxCell>
        <mxCell id="S-bI5RA-M3Y5ncMMz4Eh-24" value="Текст" style="rounded=0;whiteSpace=wrap;html=1;" parent="1" vertex="1">
          <mxGeometry x="1429" y="666.75" width="120" height="34" as="geometry" />
        </mxCell>
        <mxCell id="S-bI5RA-M3Y5ncMMz4Eh-25" value="Текст" style="rounded=0;whiteSpace=wrap;html=1;" parent="1" vertex="1">
          <mxGeometry x="1429" y="620.25" width="120" height="34" as="geometry" />
        </mxCell>
        <mxCell id="S-bI5RA-M3Y5ncMMz4Eh-26" value="Сохранить" style="rounded=0;whiteSpace=wrap;html=1;fillColor=#f5f5f5;fontColor=#333333;strokeColor=#666666;" parent="1" vertex="1">
          <mxGeometry x="1429" y="712.6599999999999" width="120" height="34" as="geometry" />
        </mxCell>
        <mxCell id="S-bI5RA-M3Y5ncMMz4Eh-27" value="Отменить" style="rounded=0;whiteSpace=wrap;html=1;fillColor=#f5f5f5;fontColor=#333333;strokeColor=#666666;" parent="1" vertex="1">
          <mxGeometry x="1274" y="712.6599999999999" width="120" height="34" as="geometry" />
        </mxCell>
        <mxCell id="fHTbIxr9rq47aHXBAycH-24" value="" style="group;fillColor=#dae8fc;strokeColor=#6c8ebf;" parent="1" vertex="1" connectable="0">
          <mxGeometry x="459.63733333333334" y="105" width="343.68" height="40" as="geometry" />
        </mxCell>
        <mxCell id="fHTbIxr9rq47aHXBAycH-26" value="&lt;div&gt;Название: текст&amp;nbsp;&lt;/div&gt;Автор: текст" style="text;html=1;align=left;verticalAlign=middle;whiteSpace=wrap;rounded=0;" parent="fHTbIxr9rq47aHXBAycH-24" vertex="1">
          <mxGeometry x="4.773333333333333" y="5" width="105.01333333333334" height="30" as="geometry" />
        </mxCell>
        <mxCell id="S-bI5RA-M3Y5ncMMz4Eh-87" value="" style="rounded=1;arcSize=0;fillColor=#ffffff;align=left;spacingLeft=5;strokeColor=light-dark(#000000, #67b2ff);html=1;strokeWidth=1;fontColor=#253858;fontSize=12" parent="1" vertex="1">
          <mxGeometry x="465" y="1029" width="120" height="33" as="geometry" />
        </mxCell>
        <mxCell id="S-bI5RA-M3Y5ncMMz4Eh-88" value="" style="shape=mxgraph.gmdl.calendar;fillColor=light-dark(#FFFFFF,#B0C0DC);strokeColor=light-dark(#000000, #67b2ff);" parent="S-bI5RA-M3Y5ncMMz4Eh-87" vertex="1">
          <mxGeometry x="1" y="0.5" width="18" height="18" relative="1" as="geometry">
            <mxPoint x="-29" y="-9" as="offset" />
          </mxGeometry>
        </mxCell>
        <mxCell id="S-bI5RA-M3Y5ncMMz4Eh-92" value="Книга" style="text;html=1;align=left;verticalAlign=middle;whiteSpace=wrap;rounded=0;" parent="1" vertex="1">
          <mxGeometry x="317" y="949" width="60" height="30" as="geometry" />
        </mxCell>
        <mxCell id="S-bI5RA-M3Y5ncMMz4Eh-93" value="Читатель" style="text;html=1;align=left;verticalAlign=middle;whiteSpace=wrap;rounded=0;" parent="1" vertex="1">
          <mxGeometry x="317" y="990.5" width="60" height="30" as="geometry" />
        </mxCell>
        <mxCell id="S-bI5RA-M3Y5ncMMz4Eh-94" value="Дата выдачи" style="text;html=1;align=left;verticalAlign=middle;whiteSpace=wrap;rounded=0;" parent="1" vertex="1">
          <mxGeometry x="317.00000000000006" y="1030.5" width="76.68" height="30" as="geometry" />
        </mxCell>
        <mxCell id="S-bI5RA-M3Y5ncMMz4Eh-95" value="Дата возврата" style="text;html=1;align=left;verticalAlign=middle;whiteSpace=wrap;rounded=0;" parent="1" vertex="1">
          <mxGeometry x="317.00000000000006" y="1070.5" width="86.68" height="30" as="geometry" />
        </mxCell>
        <mxCell id="S-bI5RA-M3Y5ncMMz4Eh-96" value="" style="rounded=0;whiteSpace=wrap;html=1;" parent="1" vertex="1">
          <mxGeometry x="465" y="947.5" width="120" height="33" as="geometry" />
        </mxCell>
        <mxCell id="S-bI5RA-M3Y5ncMMz4Eh-97" value="" style="rounded=0;whiteSpace=wrap;html=1;" parent="1" vertex="1">
          <mxGeometry x="465" y="989" width="120" height="33" as="geometry" />
        </mxCell>
        <mxCell id="S-bI5RA-M3Y5ncMMz4Eh-98" value="" style="rounded=1;arcSize=0;fillColor=#ffffff;align=left;spacingLeft=5;strokeColor=light-dark(#000000, #67b2ff);html=1;strokeWidth=1;fontColor=#253858;fontSize=12" parent="1" vertex="1">
          <mxGeometry x="465" y="1069" width="120" height="33" as="geometry" />
        </mxCell>
        <mxCell id="S-bI5RA-M3Y5ncMMz4Eh-99" value="" style="shape=mxgraph.gmdl.calendar;fillColor=light-dark(#FFFFFF,#B0C0DC);strokeColor=light-dark(#000000, #67b2ff);" parent="S-bI5RA-M3Y5ncMMz4Eh-98" vertex="1">
          <mxGeometry x="1" y="0.5" width="18" height="18" relative="1" as="geometry">
            <mxPoint x="-29" y="-9" as="offset" />
          </mxGeometry>
        </mxCell>
        <mxCell id="S-bI5RA-M3Y5ncMMz4Eh-100" value="Сохранить" style="rounded=0;whiteSpace=wrap;html=1;fillColor=#f5f5f5;fontColor=#333333;strokeColor=#666666;" parent="1" vertex="1">
          <mxGeometry x="465" y="1118.9999999999998" width="120" height="34" as="geometry" />
        </mxCell>
        <mxCell id="S-bI5RA-M3Y5ncMMz4Eh-101" value="Отменить" style="rounded=0;whiteSpace=wrap;html=1;fillColor=#f5f5f5;fontColor=#333333;strokeColor=#666666;" parent="1" vertex="1">
          <mxGeometry x="318" y="1118.9999999999998" width="120" height="34" as="geometry" />
        </mxCell>
        <mxCell id="S-bI5RA-M3Y5ncMMz4Eh-102" value="" style="rounded=1;fillColor=#FFFFFF;strokeColor=none;html=1;fontColor=#FFFFFF;align=left;fontSize=12;spacingLeft=10;sketch=1;hachureGap=4;pointerEvents=0;fontFamily=Architects Daughter;fontSource=https%3A%2F%2Ffonts.googleapis.com%2Fcss%3Ffamily%3DArchitects%2BDaughter;whiteSpace=wrap;" parent="1" vertex="1">
          <mxGeometry x="472" y="953.5" width="110" height="21.5" as="geometry" />
        </mxCell>
        <mxCell id="S-bI5RA-M3Y5ncMMz4Eh-103" value="" style="shape=triangle;direction=south;fillColor=#596780;strokeColor=none;html=1;sketch=0;hachureGap=4;pointerEvents=0;fontFamily=Architects Daughter;fontSource=https%3A%2F%2Ffonts.googleapis.com%2Fcss%3Ffamily%3DArchitects%2BDaughter;fontSize=20;" parent="S-bI5RA-M3Y5ncMMz4Eh-102" vertex="1">
          <mxGeometry x="1" y="0.5" width="12" height="6" relative="1" as="geometry">
            <mxPoint x="-20" y="-3" as="offset" />
          </mxGeometry>
        </mxCell>
        <mxCell id="S-bI5RA-M3Y5ncMMz4Eh-106" value="" style="rounded=1;fillColor=#FFFFFF;strokeColor=none;html=1;fontColor=#FFFFFF;align=left;fontSize=12;spacingLeft=10;sketch=1;hachureGap=4;pointerEvents=0;fontFamily=Architects Daughter;fontSource=https%3A%2F%2Ffonts.googleapis.com%2Fcss%3Ffamily%3DArchitects%2BDaughter;whiteSpace=wrap;" parent="1" vertex="1">
          <mxGeometry x="483" y="994.75" width="100" height="21.5" as="geometry" />
        </mxCell>
        <mxCell id="S-bI5RA-M3Y5ncMMz4Eh-107" value="" style="shape=triangle;direction=south;fillColor=#596780;strokeColor=none;html=1;sketch=0;hachureGap=4;pointerEvents=0;fontFamily=Architects Daughter;fontSource=https%3A%2F%2Ffonts.googleapis.com%2Fcss%3Ffamily%3DArchitects%2BDaughter;fontSize=20;" parent="S-bI5RA-M3Y5ncMMz4Eh-106" vertex="1">
          <mxGeometry x="1" y="0.5" width="12" height="6" relative="1" as="geometry">
            <mxPoint x="-20" y="-3" as="offset" />
          </mxGeometry>
        </mxCell>
        <mxCell id="S-bI5RA-M3Y5ncMMz4Eh-108" value="Сведения о выдаче книги" style="strokeWidth=1;shadow=0;dashed=0;align=center;html=1;shape=mxgraph.mockup.containers.window;align=left;verticalAlign=top;spacingLeft=8;strokeColor2=#008cff;strokeColor3=#c4c4c4;fontColor=#666666;mainText=;fontSize=17;labelBackgroundColor=none;whiteSpace=wrap;" parent="1" vertex="1">
          <mxGeometry x="620" y="899" width="304" height="270" as="geometry" />
        </mxCell>
        <mxCell id="S-bI5RA-M3Y5ncMMz4Eh-109" value="" style="rounded=1;arcSize=0;fillColor=#ffffff;align=left;spacingLeft=5;strokeColor=light-dark(#000000, #67b2ff);html=1;strokeWidth=1;fontColor=#253858;fontSize=12" parent="1" vertex="1">
          <mxGeometry x="785" y="1029" width="120" height="33" as="geometry" />
        </mxCell>
        <mxCell id="S-bI5RA-M3Y5ncMMz4Eh-110" value="" style="shape=mxgraph.gmdl.calendar;fillColor=light-dark(#FFFFFF,#B0C0DC);strokeColor=light-dark(#000000, #67b2ff);" parent="S-bI5RA-M3Y5ncMMz4Eh-109" vertex="1">
          <mxGeometry x="1" y="0.5" width="18" height="18" relative="1" as="geometry">
            <mxPoint x="-29" y="-9" as="offset" />
          </mxGeometry>
        </mxCell>
        <mxCell id="S-bI5RA-M3Y5ncMMz4Eh-127" value="04.03.2025" style="text;html=1;align=center;verticalAlign=middle;whiteSpace=wrap;rounded=0;" parent="S-bI5RA-M3Y5ncMMz4Eh-109" vertex="1">
          <mxGeometry x="18" y="2" width="60" height="30" as="geometry" />
        </mxCell>
        <mxCell id="S-bI5RA-M3Y5ncMMz4Eh-111" value="Книга" style="text;html=1;align=left;verticalAlign=middle;whiteSpace=wrap;rounded=0;" parent="1" vertex="1">
          <mxGeometry x="637" y="949" width="60" height="30" as="geometry" />
        </mxCell>
        <mxCell id="S-bI5RA-M3Y5ncMMz4Eh-112" value="Читатель" style="text;html=1;align=left;verticalAlign=middle;whiteSpace=wrap;rounded=0;" parent="1" vertex="1">
          <mxGeometry x="637" y="990.5" width="60" height="30" as="geometry" />
        </mxCell>
        <mxCell id="S-bI5RA-M3Y5ncMMz4Eh-113" value="Дата выдачи" style="text;html=1;align=left;verticalAlign=middle;whiteSpace=wrap;rounded=0;" parent="1" vertex="1">
          <mxGeometry x="637" y="1030.5" width="76.68" height="30" as="geometry" />
        </mxCell>
        <mxCell id="S-bI5RA-M3Y5ncMMz4Eh-114" value="Дата возврата" style="text;html=1;align=left;verticalAlign=middle;whiteSpace=wrap;rounded=0;" parent="1" vertex="1">
          <mxGeometry x="637" y="1070.5" width="86.68" height="30" as="geometry" />
        </mxCell>
        <mxCell id="S-bI5RA-M3Y5ncMMz4Eh-115" value="" style="rounded=0;whiteSpace=wrap;html=1;" parent="1" vertex="1">
          <mxGeometry x="785" y="947.5" width="120" height="33" as="geometry" />
        </mxCell>
        <mxCell id="S-bI5RA-M3Y5ncMMz4Eh-116" value="" style="rounded=0;whiteSpace=wrap;html=1;" parent="1" vertex="1">
          <mxGeometry x="785" y="989" width="120" height="33" as="geometry" />
        </mxCell>
        <mxCell id="S-bI5RA-M3Y5ncMMz4Eh-117" value="" style="rounded=1;arcSize=0;fillColor=#ffffff;align=left;spacingLeft=5;strokeColor=light-dark(#000000, #67b2ff);html=1;strokeWidth=1;fontColor=#253858;fontSize=12" parent="1" vertex="1">
          <mxGeometry x="785" y="1069" width="120" height="33" as="geometry" />
        </mxCell>
        <mxCell id="S-bI5RA-M3Y5ncMMz4Eh-118" value="" style="shape=mxgraph.gmdl.calendar;fillColor=light-dark(#FFFFFF,#B0C0DC);strokeColor=light-dark(#000000, #67b2ff);" parent="S-bI5RA-M3Y5ncMMz4Eh-117" vertex="1">
          <mxGeometry x="1" y="0.5" width="18" height="18" relative="1" as="geometry">
            <mxPoint x="-29" y="-9" as="offset" />
          </mxGeometry>
        </mxCell>
        <mxCell id="S-bI5RA-M3Y5ncMMz4Eh-128" value="18.03.2025" style="text;html=1;align=center;verticalAlign=middle;whiteSpace=wrap;rounded=0;" parent="S-bI5RA-M3Y5ncMMz4Eh-117" vertex="1">
          <mxGeometry x="18" y="2" width="60" height="30" as="geometry" />
        </mxCell>
        <mxCell id="S-bI5RA-M3Y5ncMMz4Eh-119" value="Сохранить" style="rounded=0;whiteSpace=wrap;html=1;fillColor=#f5f5f5;fontColor=#333333;strokeColor=#666666;" parent="1" vertex="1">
          <mxGeometry x="785" y="1118.9999999999998" width="120" height="34" as="geometry" />
        </mxCell>
        <mxCell id="S-bI5RA-M3Y5ncMMz4Eh-120" value="Отменить" style="rounded=0;whiteSpace=wrap;html=1;fillColor=#f5f5f5;fontColor=#333333;strokeColor=#666666;" parent="1" vertex="1">
          <mxGeometry x="638" y="1118.9999999999998" width="120" height="34" as="geometry" />
        </mxCell>
        <mxCell id="S-bI5RA-M3Y5ncMMz4Eh-121" value="" style="rounded=1;fillColor=#FFFFFF;strokeColor=none;html=1;fontColor=#FFFFFF;align=left;fontSize=12;spacingLeft=10;sketch=1;hachureGap=4;pointerEvents=0;fontFamily=Architects Daughter;fontSource=https%3A%2F%2Ffonts.googleapis.com%2Fcss%3Ffamily%3DArchitects%2BDaughter;whiteSpace=wrap;" parent="1" vertex="1">
          <mxGeometry x="793" y="953.5" width="110" height="21.5" as="geometry" />
        </mxCell>
        <mxCell id="S-bI5RA-M3Y5ncMMz4Eh-122" value="" style="shape=triangle;direction=south;fillColor=#596780;strokeColor=none;html=1;sketch=0;hachureGap=4;pointerEvents=0;fontFamily=Architects Daughter;fontSource=https%3A%2F%2Ffonts.googleapis.com%2Fcss%3Ffamily%3DArchitects%2BDaughter;fontSize=20;" parent="S-bI5RA-M3Y5ncMMz4Eh-121" vertex="1">
          <mxGeometry x="1" y="0.5" width="12" height="6" relative="1" as="geometry">
            <mxPoint x="-20" y="-3" as="offset" />
          </mxGeometry>
        </mxCell>
        <mxCell id="S-bI5RA-M3Y5ncMMz4Eh-125" value="Текст" style="text;html=1;align=center;verticalAlign=middle;whiteSpace=wrap;rounded=0;" parent="S-bI5RA-M3Y5ncMMz4Eh-121" vertex="1">
          <mxGeometry x="22" width="60" height="20" as="geometry" />
        </mxCell>
        <mxCell id="S-bI5RA-M3Y5ncMMz4Eh-123" value="" style="rounded=1;fillColor=#FFFFFF;strokeColor=none;html=1;fontColor=#FFFFFF;align=left;fontSize=12;spacingLeft=10;sketch=1;hachureGap=4;pointerEvents=0;fontFamily=Architects Daughter;fontSource=https%3A%2F%2Ffonts.googleapis.com%2Fcss%3Ffamily%3DArchitects%2BDaughter;whiteSpace=wrap;" parent="1" vertex="1">
          <mxGeometry x="803" y="994.75" width="100" height="21.5" as="geometry" />
        </mxCell>
        <mxCell id="S-bI5RA-M3Y5ncMMz4Eh-124" value="" style="shape=triangle;direction=south;fillColor=#596780;strokeColor=none;html=1;sketch=0;hachureGap=4;pointerEvents=0;fontFamily=Architects Daughter;fontSource=https%3A%2F%2Ffonts.googleapis.com%2Fcss%3Ffamily%3DArchitects%2BDaughter;fontSize=20;" parent="S-bI5RA-M3Y5ncMMz4Eh-123" vertex="1">
          <mxGeometry x="1" y="0.5" width="12" height="6" relative="1" as="geometry">
            <mxPoint x="-20" y="-3" as="offset" />
          </mxGeometry>
        </mxCell>
        <mxCell id="S-bI5RA-M3Y5ncMMz4Eh-126" value="Текст" style="text;html=1;align=center;verticalAlign=middle;whiteSpace=wrap;rounded=0;" parent="S-bI5RA-M3Y5ncMMz4Eh-123" vertex="1">
          <mxGeometry x="12" width="60" height="20" as="geometry" />
        </mxCell>
        <mxCell id="S-bI5RA-M3Y5ncMMz4Eh-130" value="Сведения о читателе" style="strokeWidth=1;shadow=0;dashed=0;align=center;html=1;shape=mxgraph.mockup.containers.window;align=left;verticalAlign=top;spacingLeft=8;strokeColor2=#008cff;strokeColor3=#c4c4c4;fontColor=#666666;mainText=;fontSize=17;labelBackgroundColor=none;whiteSpace=wrap;" parent="1" vertex="1">
          <mxGeometry x="-582.5" y="909" width="320" height="260" as="geometry" />
        </mxCell>
        <mxCell id="S-bI5RA-M3Y5ncMMz4Eh-131" value="Номер читательского билета" style="text;html=1;align=left;verticalAlign=middle;whiteSpace=wrap;rounded=0;" parent="1" vertex="1">
          <mxGeometry x="-572.5" y="949" width="170" height="29" as="geometry" />
        </mxCell>
        <mxCell id="S-bI5RA-M3Y5ncMMz4Eh-132" value="Фамилия" style="text;html=1;align=left;verticalAlign=middle;whiteSpace=wrap;rounded=0;" parent="1" vertex="1">
          <mxGeometry x="-572.5" y="989" width="60" height="30" as="geometry" />
        </mxCell>
        <mxCell id="S-bI5RA-M3Y5ncMMz4Eh-133" value="Имя" style="text;html=1;align=left;verticalAlign=middle;whiteSpace=wrap;rounded=0;" parent="1" vertex="1">
          <mxGeometry x="-572.5" y="1029" width="60" height="30" as="geometry" />
        </mxCell>
        <mxCell id="S-bI5RA-M3Y5ncMMz4Eh-134" value="Отчество" style="text;html=1;align=left;verticalAlign=middle;whiteSpace=wrap;rounded=0;" parent="1" vertex="1">
          <mxGeometry x="-572.5" y="1069" width="60" height="30" as="geometry" />
        </mxCell>
        <mxCell id="S-bI5RA-M3Y5ncMMz4Eh-135" value="" style="rounded=0;whiteSpace=wrap;html=1;" parent="1" vertex="1">
          <mxGeometry x="-394" y="948" width="120" height="30" as="geometry" />
        </mxCell>
        <mxCell id="S-bI5RA-M3Y5ncMMz4Eh-136" value="" style="rounded=0;whiteSpace=wrap;html=1;" parent="1" vertex="1">
          <mxGeometry x="-394" y="989" width="120" height="30" as="geometry" />
        </mxCell>
        <mxCell id="S-bI5RA-M3Y5ncMMz4Eh-137" value="" style="rounded=0;whiteSpace=wrap;html=1;" parent="1" vertex="1">
          <mxGeometry x="-394" y="1029" width="120" height="30" as="geometry" />
        </mxCell>
        <mxCell id="S-bI5RA-M3Y5ncMMz4Eh-138" value="Сохранить" style="rounded=0;whiteSpace=wrap;html=1;fillColor=#f5f5f5;fontColor=#333333;strokeColor=#666666;" parent="1" vertex="1">
          <mxGeometry x="-394" y="1119" width="120" height="33" as="geometry" />
        </mxCell>
        <mxCell id="S-bI5RA-M3Y5ncMMz4Eh-139" value="Отменить" style="rounded=0;whiteSpace=wrap;html=1;fillColor=#f5f5f5;fontColor=#333333;strokeColor=#666666;" parent="1" vertex="1">
          <mxGeometry x="-570" y="1118.9999999999998" width="120" height="34" as="geometry" />
        </mxCell>
        <mxCell id="S-bI5RA-M3Y5ncMMz4Eh-140" value="" style="rounded=0;whiteSpace=wrap;html=1;" parent="1" vertex="1">
          <mxGeometry x="-394" y="1069" width="120" height="30" as="geometry" />
        </mxCell>
        <mxCell id="S-bI5RA-M3Y5ncMMz4Eh-142" value="Сведения о читателе" style="strokeWidth=1;shadow=0;dashed=0;align=center;html=1;shape=mxgraph.mockup.containers.window;align=left;verticalAlign=top;spacingLeft=8;strokeColor2=#008cff;strokeColor3=#c4c4c4;fontColor=#666666;mainText=;fontSize=17;labelBackgroundColor=none;whiteSpace=wrap;" parent="1" vertex="1">
          <mxGeometry x="-250.5" y="909" width="320" height="260" as="geometry" />
        </mxCell>
        <mxCell id="S-bI5RA-M3Y5ncMMz4Eh-143" value="Номер читательского билета" style="text;html=1;align=left;verticalAlign=middle;whiteSpace=wrap;rounded=0;" parent="1" vertex="1">
          <mxGeometry x="-240.5" y="948" width="170" height="30" as="geometry" />
        </mxCell>
        <mxCell id="S-bI5RA-M3Y5ncMMz4Eh-144" value="Фамилия" style="text;html=1;align=left;verticalAlign=middle;whiteSpace=wrap;rounded=0;" parent="1" vertex="1">
          <mxGeometry x="-240.5" y="989" width="60" height="30" as="geometry" />
        </mxCell>
        <mxCell id="S-bI5RA-M3Y5ncMMz4Eh-145" value="Имя" style="text;html=1;align=left;verticalAlign=middle;whiteSpace=wrap;rounded=0;" parent="1" vertex="1">
          <mxGeometry x="-240.5" y="1029" width="60" height="30" as="geometry" />
        </mxCell>
        <mxCell id="S-bI5RA-M3Y5ncMMz4Eh-146" value="Отчество" style="text;html=1;align=left;verticalAlign=middle;whiteSpace=wrap;rounded=0;" parent="1" vertex="1">
          <mxGeometry x="-240.5" y="1069" width="60" height="30" as="geometry" />
        </mxCell>
        <mxCell id="S-bI5RA-M3Y5ncMMz4Eh-147" value="Текст" style="rounded=0;whiteSpace=wrap;html=1;" parent="1" vertex="1">
          <mxGeometry x="-62" y="948" width="120" height="30" as="geometry" />
        </mxCell>
        <mxCell id="S-bI5RA-M3Y5ncMMz4Eh-148" value="Текст" style="rounded=0;whiteSpace=wrap;html=1;" parent="1" vertex="1">
          <mxGeometry x="-62" y="989" width="120" height="30" as="geometry" />
        </mxCell>
        <mxCell id="S-bI5RA-M3Y5ncMMz4Eh-149" value="Текст" style="rounded=0;whiteSpace=wrap;html=1;" parent="1" vertex="1">
          <mxGeometry x="-62" y="1029" width="120" height="30" as="geometry" />
        </mxCell>
        <mxCell id="S-bI5RA-M3Y5ncMMz4Eh-150" value="Сохранить" style="rounded=0;whiteSpace=wrap;html=1;fillColor=#f5f5f5;fontColor=#333333;strokeColor=#666666;" parent="1" vertex="1">
          <mxGeometry x="-62" y="1119" width="120" height="33" as="geometry" />
        </mxCell>
        <mxCell id="S-bI5RA-M3Y5ncMMz4Eh-151" value="Отменить" style="rounded=0;whiteSpace=wrap;html=1;fillColor=#f5f5f5;fontColor=#333333;strokeColor=#666666;" parent="1" vertex="1">
          <mxGeometry x="-238" y="1118.9999999999998" width="120" height="34" as="geometry" />
        </mxCell>
        <mxCell id="S-bI5RA-M3Y5ncMMz4Eh-152" value="Текст" style="rounded=0;whiteSpace=wrap;html=1;" parent="1" vertex="1">
          <mxGeometry x="-62" y="1069" width="120" height="30" as="geometry" />
        </mxCell>
        <mxCell id="S-bI5RA-M3Y5ncMMz4Eh-153" style="edgeStyle=orthogonalEdgeStyle;rounded=0;orthogonalLoop=1;jettySize=auto;html=1;exitX=1;exitY=0.5;exitDx=0;exitDy=0;entryX=0;entryY=0.028;entryDx=0;entryDy=0;entryPerimeter=0;" parent="1" source="orR1T6i9TAgb9a2kDOi2-15" target="fHTbIxr9rq47aHXBAycH-9" edge="1">
          <mxGeometry relative="1" as="geometry" />
        </mxCell>
        <mxCell id="S-bI5RA-M3Y5ncMMz4Eh-155" style="edgeStyle=orthogonalEdgeStyle;rounded=0;orthogonalLoop=1;jettySize=auto;html=1;exitX=0;exitY=0.5;exitDx=0;exitDy=0;entryX=0.077;entryY=0;entryDx=0;entryDy=0;entryPerimeter=0;" parent="1" source="fHTbIxr9rq47aHXBAycH-11" target="fHTbIxr9rq47aHXBAycH-38" edge="1">
          <mxGeometry relative="1" as="geometry">
            <Array as="points">
              <mxPoint x="240" y="175" />
              <mxPoint x="240" y="450" />
              <mxPoint x="-433" y="450" />
            </Array>
          </mxGeometry>
        </mxCell>
        <mxCell id="S-bI5RA-M3Y5ncMMz4Eh-156" style="edgeStyle=orthogonalEdgeStyle;rounded=0;orthogonalLoop=1;jettySize=auto;html=1;exitX=0;exitY=0.5;exitDx=0;exitDy=0;" parent="1" source="fHTbIxr9rq47aHXBAycH-13" edge="1">
          <mxGeometry relative="1" as="geometry">
            <mxPoint x="300" y="518" as="targetPoint" />
            <Array as="points">
              <mxPoint x="280" y="235" />
              <mxPoint x="280" y="518" />
            </Array>
          </mxGeometry>
        </mxCell>
        <mxCell id="S-bI5RA-M3Y5ncMMz4Eh-157" value="Удалить запись?" style="strokeWidth=1;shadow=0;dashed=0;align=center;html=1;shape=mxgraph.mockup.containers.rrect;rSize=0;strokeColor=#666666;fontColor=#666666;fontSize=17;verticalAlign=top;whiteSpace=wrap;fillColor=#ffffff;spacingTop=32;" parent="1" vertex="1">
          <mxGeometry x="80" y="909" width="200" height="101" as="geometry" />
        </mxCell>
        <mxCell id="S-bI5RA-M3Y5ncMMz4Eh-158" value="Удаление записи" style="strokeWidth=1;shadow=0;dashed=0;align=center;html=1;shape=mxgraph.mockup.containers.rrect;rSize=0;fontSize=17;fontColor=#666666;strokeColor=#666666;align=left;spacingLeft=8;fillColor=none;resizeWidth=1;whiteSpace=wrap;" parent="S-bI5RA-M3Y5ncMMz4Eh-157" vertex="1">
          <mxGeometry width="200" height="30" relative="1" as="geometry" />
        </mxCell>
        <mxCell id="S-bI5RA-M3Y5ncMMz4Eh-159" value="" style="shape=ellipse;strokeColor=#008cff;resizable=0;fillColor=none;html=1;" parent="S-bI5RA-M3Y5ncMMz4Eh-158" vertex="1">
          <mxGeometry x="1" y="0.5" width="20" height="20" relative="1" as="geometry">
            <mxPoint x="-25" y="-10" as="offset" />
          </mxGeometry>
        </mxCell>
        <mxCell id="S-bI5RA-M3Y5ncMMz4Eh-160" value="Нет" style="strokeWidth=1;shadow=0;dashed=0;align=center;html=1;shape=mxgraph.mockup.containers.rrect;rSize=0;fontSize=16;fontColor=#666666;strokeColor=#c4c4c4;whiteSpace=wrap;fillColor=none;" parent="S-bI5RA-M3Y5ncMMz4Eh-157" vertex="1">
          <mxGeometry x="0.25" y="1" width="90" height="25" relative="1" as="geometry">
            <mxPoint x="-45" y="-33" as="offset" />
          </mxGeometry>
        </mxCell>
        <mxCell id="S-bI5RA-M3Y5ncMMz4Eh-161" value="Да" style="strokeWidth=1;shadow=0;dashed=0;align=center;html=1;shape=mxgraph.mockup.containers.rrect;rSize=0;fontSize=16;fontColor=#666666;strokeColor=#c4c4c4;whiteSpace=wrap;fillColor=none;" parent="S-bI5RA-M3Y5ncMMz4Eh-157" vertex="1">
          <mxGeometry x="0.75" y="1" width="90" height="25" relative="1" as="geometry">
            <mxPoint x="-45" y="-33" as="offset" />
          </mxGeometry>
        </mxCell>
        <mxCell id="S-bI5RA-M3Y5ncMMz4Eh-162" style="edgeStyle=orthogonalEdgeStyle;rounded=0;orthogonalLoop=1;jettySize=auto;html=1;exitX=1;exitY=0.5;exitDx=0;exitDy=0;entryX=0.493;entryY=-0.1;entryDx=0;entryDy=0;entryPerimeter=0;" parent="1" source="fHTbIxr9rq47aHXBAycH-46" target="S-bI5RA-M3Y5ncMMz4Eh-158" edge="1">
          <mxGeometry relative="1" as="geometry" />
        </mxCell>
        <mxCell id="S-bI5RA-M3Y5ncMMz4Eh-163" value="Выделена запись" style="edgeLabel;html=1;align=center;verticalAlign=middle;resizable=0;points=[];" parent="S-bI5RA-M3Y5ncMMz4Eh-162" vertex="1" connectable="0">
          <mxGeometry x="-0.2716" y="3" relative="1" as="geometry">
            <mxPoint x="-1" as="offset" />
          </mxGeometry>
        </mxCell>
        <mxCell id="S-bI5RA-M3Y5ncMMz4Eh-164" style="edgeStyle=orthogonalEdgeStyle;rounded=0;orthogonalLoop=1;jettySize=auto;html=1;exitX=0.5;exitY=1;exitDx=0;exitDy=0;entryX=0.364;entryY=-0.001;entryDx=0;entryDy=0;entryPerimeter=0;" parent="1" source="fHTbIxr9rq47aHXBAycH-44" target="S-bI5RA-M3Y5ncMMz4Eh-142" edge="1">
          <mxGeometry relative="1" as="geometry" />
        </mxCell>
        <mxCell id="S-bI5RA-M3Y5ncMMz4Eh-165" value="Выделена запись" style="edgeLabel;html=1;align=center;verticalAlign=middle;resizable=0;points=[];" parent="S-bI5RA-M3Y5ncMMz4Eh-164" vertex="1" connectable="0">
          <mxGeometry x="-0.03" relative="1" as="geometry">
            <mxPoint as="offset" />
          </mxGeometry>
        </mxCell>
        <mxCell id="S-bI5RA-M3Y5ncMMz4Eh-166" style="edgeStyle=orthogonalEdgeStyle;rounded=0;orthogonalLoop=1;jettySize=auto;html=1;exitX=0.5;exitY=1;exitDx=0;exitDy=0;entryX=0.884;entryY=-0.01;entryDx=0;entryDy=0;entryPerimeter=0;" parent="1" source="fHTbIxr9rq47aHXBAycH-45" target="S-bI5RA-M3Y5ncMMz4Eh-130" edge="1">
          <mxGeometry relative="1" as="geometry" />
        </mxCell>
        <mxCell id="S-bI5RA-M3Y5ncMMz4Eh-167" style="edgeStyle=orthogonalEdgeStyle;rounded=0;orthogonalLoop=1;jettySize=auto;html=1;exitX=0.5;exitY=1;exitDx=0;exitDy=0;entryX=0.066;entryY=-0.004;entryDx=0;entryDy=0;entryPerimeter=0;" parent="1" source="fHTbIxr9rq47aHXBAycH-94" target="S-bI5RA-M3Y5ncMMz4Eh-108" edge="1">
          <mxGeometry relative="1" as="geometry" />
        </mxCell>
        <mxCell id="QWlqJHygvRNn6RCFuzvo-22" value="Выделена запись" style="edgeLabel;html=1;align=center;verticalAlign=middle;resizable=0;points=[];" vertex="1" connectable="0" parent="S-bI5RA-M3Y5ncMMz4Eh-167">
          <mxGeometry x="-0.0947" y="1" relative="1" as="geometry">
            <mxPoint as="offset" />
          </mxGeometry>
        </mxCell>
        <mxCell id="S-bI5RA-M3Y5ncMMz4Eh-168" style="edgeStyle=orthogonalEdgeStyle;rounded=0;orthogonalLoop=1;jettySize=auto;html=1;exitX=0.5;exitY=1;exitDx=0;exitDy=0;entryX=0.691;entryY=-0.007;entryDx=0;entryDy=0;entryPerimeter=0;" parent="1" source="fHTbIxr9rq47aHXBAycH-95" target="S-bI5RA-M3Y5ncMMz4Eh-91" edge="1">
          <mxGeometry relative="1" as="geometry" />
        </mxCell>
        <mxCell id="S-bI5RA-M3Y5ncMMz4Eh-169" value="Удалить запись?" style="strokeWidth=1;shadow=0;dashed=0;align=center;html=1;shape=mxgraph.mockup.containers.rrect;rSize=0;strokeColor=#666666;fontColor=#666666;fontSize=17;verticalAlign=top;whiteSpace=wrap;fillColor=#ffffff;spacingTop=32;" parent="1" vertex="1">
          <mxGeometry x="940" y="902" width="200" height="101" as="geometry" />
        </mxCell>
        <mxCell id="S-bI5RA-M3Y5ncMMz4Eh-170" value="Удаление записи" style="strokeWidth=1;shadow=0;dashed=0;align=center;html=1;shape=mxgraph.mockup.containers.rrect;rSize=0;fontSize=17;fontColor=#666666;strokeColor=#666666;align=left;spacingLeft=8;fillColor=none;resizeWidth=1;whiteSpace=wrap;" parent="S-bI5RA-M3Y5ncMMz4Eh-169" vertex="1">
          <mxGeometry width="200" height="30" relative="1" as="geometry" />
        </mxCell>
        <mxCell id="S-bI5RA-M3Y5ncMMz4Eh-171" value="" style="shape=ellipse;strokeColor=#008cff;resizable=0;fillColor=none;html=1;" parent="S-bI5RA-M3Y5ncMMz4Eh-170" vertex="1">
          <mxGeometry x="1" y="0.5" width="20" height="20" relative="1" as="geometry">
            <mxPoint x="-25" y="-10" as="offset" />
          </mxGeometry>
        </mxCell>
        <mxCell id="S-bI5RA-M3Y5ncMMz4Eh-172" value="Нет" style="strokeWidth=1;shadow=0;dashed=0;align=center;html=1;shape=mxgraph.mockup.containers.rrect;rSize=0;fontSize=16;fontColor=#666666;strokeColor=#c4c4c4;whiteSpace=wrap;fillColor=none;" parent="S-bI5RA-M3Y5ncMMz4Eh-169" vertex="1">
          <mxGeometry x="0.25" y="1" width="90" height="25" relative="1" as="geometry">
            <mxPoint x="-45" y="-33" as="offset" />
          </mxGeometry>
        </mxCell>
        <mxCell id="S-bI5RA-M3Y5ncMMz4Eh-173" value="Да" style="strokeWidth=1;shadow=0;dashed=0;align=center;html=1;shape=mxgraph.mockup.containers.rrect;rSize=0;fontSize=16;fontColor=#666666;strokeColor=#c4c4c4;whiteSpace=wrap;fillColor=none;" parent="S-bI5RA-M3Y5ncMMz4Eh-169" vertex="1">
          <mxGeometry x="0.75" y="1" width="90" height="25" relative="1" as="geometry">
            <mxPoint x="-45" y="-33" as="offset" />
          </mxGeometry>
        </mxCell>
        <mxCell id="S-bI5RA-M3Y5ncMMz4Eh-175" style="edgeStyle=orthogonalEdgeStyle;rounded=0;orthogonalLoop=1;jettySize=auto;html=1;exitX=1;exitY=0.5;exitDx=0;exitDy=0;entryX=0.468;entryY=0.033;entryDx=0;entryDy=0;entryPerimeter=0;" parent="1" source="fHTbIxr9rq47aHXBAycH-96" target="S-bI5RA-M3Y5ncMMz4Eh-170" edge="1">
          <mxGeometry relative="1" as="geometry">
            <Array as="points">
              <mxPoint x="1034" y="825" />
              <mxPoint x="1034" y="903" />
            </Array>
          </mxGeometry>
        </mxCell>
        <mxCell id="S-bI5RA-M3Y5ncMMz4Eh-176" value="Выделена запись" style="edgeLabel;html=1;align=center;verticalAlign=middle;resizable=0;points=[];" parent="S-bI5RA-M3Y5ncMMz4Eh-175" vertex="1" connectable="0">
          <mxGeometry x="-0.2388" relative="1" as="geometry">
            <mxPoint as="offset" />
          </mxGeometry>
        </mxCell>
        <mxCell id="S-bI5RA-M3Y5ncMMz4Eh-180" value="Удалить запись?" style="strokeWidth=1;shadow=0;dashed=0;align=center;html=1;shape=mxgraph.mockup.containers.rrect;rSize=0;strokeColor=#666666;fontColor=#666666;fontSize=17;verticalAlign=top;whiteSpace=wrap;fillColor=#ffffff;spacingTop=32;" parent="1" vertex="1">
          <mxGeometry x="970" y="250" width="200" height="101" as="geometry" />
        </mxCell>
        <mxCell id="S-bI5RA-M3Y5ncMMz4Eh-181" value="Удаление записи" style="strokeWidth=1;shadow=0;dashed=0;align=center;html=1;shape=mxgraph.mockup.containers.rrect;rSize=0;fontSize=17;fontColor=#666666;strokeColor=#666666;align=left;spacingLeft=8;fillColor=none;resizeWidth=1;whiteSpace=wrap;" parent="S-bI5RA-M3Y5ncMMz4Eh-180" vertex="1">
          <mxGeometry width="200" height="30" relative="1" as="geometry" />
        </mxCell>
        <mxCell id="S-bI5RA-M3Y5ncMMz4Eh-182" value="" style="shape=ellipse;strokeColor=#008cff;resizable=0;fillColor=none;html=1;" parent="S-bI5RA-M3Y5ncMMz4Eh-181" vertex="1">
          <mxGeometry x="1" y="0.5" width="20" height="20" relative="1" as="geometry">
            <mxPoint x="-25" y="-10" as="offset" />
          </mxGeometry>
        </mxCell>
        <mxCell id="S-bI5RA-M3Y5ncMMz4Eh-183" value="Нет" style="strokeWidth=1;shadow=0;dashed=0;align=center;html=1;shape=mxgraph.mockup.containers.rrect;rSize=0;fontSize=16;fontColor=#666666;strokeColor=#c4c4c4;whiteSpace=wrap;fillColor=none;" parent="S-bI5RA-M3Y5ncMMz4Eh-180" vertex="1">
          <mxGeometry x="0.25" y="1" width="90" height="25" relative="1" as="geometry">
            <mxPoint x="-45" y="-33" as="offset" />
          </mxGeometry>
        </mxCell>
        <mxCell id="S-bI5RA-M3Y5ncMMz4Eh-184" value="Да" style="strokeWidth=1;shadow=0;dashed=0;align=center;html=1;shape=mxgraph.mockup.containers.rrect;rSize=0;fontSize=16;fontColor=#666666;strokeColor=#c4c4c4;whiteSpace=wrap;fillColor=none;" parent="S-bI5RA-M3Y5ncMMz4Eh-180" vertex="1">
          <mxGeometry x="0.75" y="1" width="90" height="25" relative="1" as="geometry">
            <mxPoint x="-45" y="-33" as="offset" />
          </mxGeometry>
        </mxCell>
        <mxCell id="S-bI5RA-M3Y5ncMMz4Eh-185" style="edgeStyle=orthogonalEdgeStyle;rounded=0;orthogonalLoop=1;jettySize=auto;html=1;exitX=1;exitY=0.5;exitDx=0;exitDy=0;entryX=0;entryY=0.495;entryDx=0;entryDy=0;entryPerimeter=0;" parent="1" source="fHTbIxr9rq47aHXBAycH-20" target="S-bI5RA-M3Y5ncMMz4Eh-180" edge="1">
          <mxGeometry relative="1" as="geometry" />
        </mxCell>
        <mxCell id="S-bI5RA-M3Y5ncMMz4Eh-186" value="Выделена запись" style="edgeLabel;html=1;align=center;verticalAlign=middle;resizable=0;points=[];" parent="S-bI5RA-M3Y5ncMMz4Eh-185" vertex="1" connectable="0">
          <mxGeometry x="0.056" relative="1" as="geometry">
            <mxPoint as="offset" />
          </mxGeometry>
        </mxCell>
        <mxCell id="QWlqJHygvRNn6RCFuzvo-1" value="" style="rounded=0;whiteSpace=wrap;html=1;" vertex="1" parent="1">
          <mxGeometry x="1056" y="529.25" width="84" height="33" as="geometry" />
        </mxCell>
        <mxCell id="QWlqJHygvRNn6RCFuzvo-2" value="" style="rounded=1;fillColor=#FFFFFF;strokeColor=none;html=1;fontColor=#FFFFFF;align=left;fontSize=12;spacingLeft=10;sketch=1;hachureGap=4;pointerEvents=0;fontFamily=Architects Daughter;fontSource=https%3A%2F%2Ffonts.googleapis.com%2Fcss%3Ffamily%3DArchitects%2BDaughter;whiteSpace=wrap;" vertex="1" parent="1">
          <mxGeometry x="1110" y="535" width="29" height="21.5" as="geometry" />
        </mxCell>
        <mxCell id="QWlqJHygvRNn6RCFuzvo-3" value="" style="shape=triangle;direction=south;fillColor=#596780;strokeColor=none;html=1;sketch=0;hachureGap=4;pointerEvents=0;fontFamily=Architects Daughter;fontSource=https%3A%2F%2Ffonts.googleapis.com%2Fcss%3Ffamily%3DArchitects%2BDaughter;fontSize=20;" vertex="1" parent="QWlqJHygvRNn6RCFuzvo-2">
          <mxGeometry x="1" y="0.5" width="12" height="6" relative="1" as="geometry">
            <mxPoint x="-20" y="-3" as="offset" />
          </mxGeometry>
        </mxCell>
        <mxCell id="QWlqJHygvRNn6RCFuzvo-5" value="+" style="rounded=0;whiteSpace=wrap;html=1;" vertex="1" parent="1">
          <mxGeometry x="1523" y="532.75" width="26" height="28.25" as="geometry" />
        </mxCell>
        <mxCell id="QWlqJHygvRNn6RCFuzvo-6" value="" style="rounded=0;whiteSpace=wrap;html=1;" vertex="1" parent="1">
          <mxGeometry x="1429" y="529.25" width="84" height="33" as="geometry" />
        </mxCell>
        <mxCell id="QWlqJHygvRNn6RCFuzvo-7" value="" style="rounded=1;fillColor=#FFFFFF;strokeColor=none;html=1;fontColor=#FFFFFF;align=left;fontSize=12;spacingLeft=10;sketch=1;hachureGap=4;pointerEvents=0;fontFamily=Architects Daughter;fontSource=https%3A%2F%2Ffonts.googleapis.com%2Fcss%3Ffamily%3DArchitects%2BDaughter;whiteSpace=wrap;" vertex="1" parent="1">
          <mxGeometry x="1483" y="535" width="29" height="21.5" as="geometry" />
        </mxCell>
        <mxCell id="QWlqJHygvRNn6RCFuzvo-8" value="" style="shape=triangle;direction=south;fillColor=#596780;strokeColor=none;html=1;sketch=0;hachureGap=4;pointerEvents=0;fontFamily=Architects Daughter;fontSource=https%3A%2F%2Ffonts.googleapis.com%2Fcss%3Ffamily%3DArchitects%2BDaughter;fontSize=20;" vertex="1" parent="QWlqJHygvRNn6RCFuzvo-7">
          <mxGeometry x="1" y="0.5" width="12" height="6" relative="1" as="geometry">
            <mxPoint x="-20" y="-3" as="offset" />
          </mxGeometry>
        </mxCell>
        <mxCell id="QWlqJHygvRNn6RCFuzvo-9" value="Текст" style="text;html=1;align=center;verticalAlign=middle;whiteSpace=wrap;rounded=0;" vertex="1" parent="1">
          <mxGeometry x="1429" y="535.75" width="60" height="20" as="geometry" />
        </mxCell>
        <mxCell id="QWlqJHygvRNn6RCFuzvo-19" value="" style="group" vertex="1" connectable="0" parent="1">
          <mxGeometry x="1180" y="800" width="286" height="221" as="geometry" />
        </mxCell>
        <mxCell id="QWlqJHygvRNn6RCFuzvo-10" value="Сведения об авторе" style="strokeWidth=1;shadow=0;dashed=0;align=center;html=1;shape=mxgraph.mockup.containers.window;align=left;verticalAlign=top;spacingLeft=8;strokeColor2=#008cff;strokeColor3=#c4c4c4;fontColor=#666666;mainText=;fontSize=17;labelBackgroundColor=none;whiteSpace=wrap;" vertex="1" parent="QWlqJHygvRNn6RCFuzvo-19">
          <mxGeometry width="286" height="221" as="geometry" />
        </mxCell>
        <mxCell id="QWlqJHygvRNn6RCFuzvo-11" value="Фамилия" style="text;html=1;align=left;verticalAlign=middle;whiteSpace=wrap;rounded=0;" vertex="1" parent="QWlqJHygvRNn6RCFuzvo-19">
          <mxGeometry x="11.5" y="41.75" width="60" height="30" as="geometry" />
        </mxCell>
        <mxCell id="QWlqJHygvRNn6RCFuzvo-12" value="Имя" style="text;html=1;align=left;verticalAlign=middle;whiteSpace=wrap;rounded=0;" vertex="1" parent="QWlqJHygvRNn6RCFuzvo-19">
          <mxGeometry x="11.5" y="81.75" width="60" height="30" as="geometry" />
        </mxCell>
        <mxCell id="QWlqJHygvRNn6RCFuzvo-13" value="Отчество" style="text;html=1;align=left;verticalAlign=middle;whiteSpace=wrap;rounded=0;" vertex="1" parent="QWlqJHygvRNn6RCFuzvo-19">
          <mxGeometry x="11.5" y="121.75" width="60" height="30" as="geometry" />
        </mxCell>
        <mxCell id="QWlqJHygvRNn6RCFuzvo-14" value="" style="rounded=0;whiteSpace=wrap;html=1;" vertex="1" parent="QWlqJHygvRNn6RCFuzvo-19">
          <mxGeometry x="154" y="41.75" width="120" height="30" as="geometry" />
        </mxCell>
        <mxCell id="QWlqJHygvRNn6RCFuzvo-15" value="" style="rounded=0;whiteSpace=wrap;html=1;" vertex="1" parent="QWlqJHygvRNn6RCFuzvo-19">
          <mxGeometry x="154" y="81.75" width="120" height="30" as="geometry" />
        </mxCell>
        <mxCell id="QWlqJHygvRNn6RCFuzvo-16" value="Сохранить" style="rounded=0;whiteSpace=wrap;html=1;fillColor=#f5f5f5;fontColor=#333333;strokeColor=#666666;" vertex="1" parent="QWlqJHygvRNn6RCFuzvo-19">
          <mxGeometry x="154" y="171.75" width="120" height="33" as="geometry" />
        </mxCell>
        <mxCell id="QWlqJHygvRNn6RCFuzvo-17" value="Отменить" style="rounded=0;whiteSpace=wrap;html=1;fillColor=#f5f5f5;fontColor=#333333;strokeColor=#666666;" vertex="1" parent="QWlqJHygvRNn6RCFuzvo-19">
          <mxGeometry x="11" y="171.74999999999977" width="120" height="34" as="geometry" />
        </mxCell>
        <mxCell id="QWlqJHygvRNn6RCFuzvo-18" value="" style="rounded=0;whiteSpace=wrap;html=1;" vertex="1" parent="QWlqJHygvRNn6RCFuzvo-19">
          <mxGeometry x="154" y="121.75" width="120" height="30" as="geometry" />
        </mxCell>
        <mxCell id="QWlqJHygvRNn6RCFuzvo-20" style="edgeStyle=orthogonalEdgeStyle;rounded=0;orthogonalLoop=1;jettySize=auto;html=1;exitX=1;exitY=0.5;exitDx=0;exitDy=0;entryX=0.154;entryY=-0.009;entryDx=0;entryDy=0;entryPerimeter=0;" edge="1" parent="1" source="S-bI5RA-M3Y5ncMMz4Eh-9" target="QWlqJHygvRNn6RCFuzvo-10">
          <mxGeometry relative="1" as="geometry" />
        </mxCell>
        <mxCell id="QWlqJHygvRNn6RCFuzvo-21" style="edgeStyle=orthogonalEdgeStyle;rounded=0;orthogonalLoop=1;jettySize=auto;html=1;exitX=1;exitY=0.5;exitDx=0;exitDy=0;entryX=1;entryY=0.299;entryDx=0;entryDy=0;entryPerimeter=0;" edge="1" parent="1" source="QWlqJHygvRNn6RCFuzvo-5" target="QWlqJHygvRNn6RCFuzvo-10">
          <mxGeometry relative="1" as="geometry">
            <Array as="points">
              <mxPoint x="1590" y="547" />
              <mxPoint x="1590" y="866" />
            </Array>
          </mxGeometry>
        </mxCell>
      </root>
    </mxGraphModel>
  </diagram>
  <diagram name="Читатель" id="Y3s1WB9LECHF3v51wf5K">
    <mxGraphModel dx="1386" dy="791" grid="1" gridSize="10" guides="1" tooltips="1" connect="1" arrows="1" fold="1" page="1" pageScale="1" pageWidth="827" pageHeight="1169" math="0" shadow="0">
      <root>
        <mxCell id="FemHh_Qpc_Y6pgHLR_ku-0" />
        <mxCell id="FemHh_Qpc_Y6pgHLR_ku-1" parent="FemHh_Qpc_Y6pgHLR_ku-0" />
        <mxCell id="FemHh_Qpc_Y6pgHLR_ku-2" value="Главная" style="strokeWidth=1;shadow=0;dashed=0;align=center;html=1;shape=mxgraph.mockup.containers.window;align=left;verticalAlign=top;spacingLeft=8;strokeColor2=#008cff;strokeColor3=#c4c4c4;fontColor=#666666;mainText=;fontSize=17;labelBackgroundColor=none;whiteSpace=wrap;" parent="FemHh_Qpc_Y6pgHLR_ku-1" vertex="1">
          <mxGeometry x="350" y="20" width="540" height="300" as="geometry" />
        </mxCell>
        <mxCell id="FemHh_Qpc_Y6pgHLR_ku-3" value="" style="rounded=0;whiteSpace=wrap;html=1;" parent="FemHh_Qpc_Y6pgHLR_ku-1" vertex="1">
          <mxGeometry x="350" y="50" width="140" height="270" as="geometry" />
        </mxCell>
        <mxCell id="FemHh_Qpc_Y6pgHLR_ku-5" value="Книги" style="rounded=0;whiteSpace=wrap;html=1;fillColor=#dae8fc;strokeColor=#6c8ebf;" parent="FemHh_Qpc_Y6pgHLR_ku-1" vertex="1">
          <mxGeometry x="360" y="95" width="120" height="40" as="geometry" />
        </mxCell>
        <mxCell id="FemHh_Qpc_Y6pgHLR_ku-7" value="Выход" style="rounded=0;whiteSpace=wrap;html=1;fillColor=#f5f5f5;fontColor=#333333;strokeColor=#666666;" parent="FemHh_Qpc_Y6pgHLR_ku-1" vertex="1">
          <mxGeometry x="360" y="265" width="120" height="40" as="geometry" />
        </mxCell>
        <mxCell id="FemHh_Qpc_Y6pgHLR_ku-20" value="Главная" style="strokeWidth=1;shadow=0;dashed=0;align=center;html=1;shape=mxgraph.mockup.containers.window;align=left;verticalAlign=top;spacingLeft=8;strokeColor2=#008cff;strokeColor3=#c4c4c4;fontColor=#666666;mainText=;fontSize=17;labelBackgroundColor=none;whiteSpace=wrap;" parent="FemHh_Qpc_Y6pgHLR_ku-1" vertex="1">
          <mxGeometry x="880" y="410" width="540" height="355" as="geometry" />
        </mxCell>
        <mxCell id="FemHh_Qpc_Y6pgHLR_ku-21" value="" style="rounded=0;whiteSpace=wrap;html=1;" parent="FemHh_Qpc_Y6pgHLR_ku-1" vertex="1">
          <mxGeometry x="880" y="440" width="140" height="325" as="geometry" />
        </mxCell>
        <mxCell id="FemHh_Qpc_Y6pgHLR_ku-22" value="Читатели" style="rounded=0;whiteSpace=wrap;html=1;fillColor=#f5f5f5;fontColor=#333333;strokeColor=#666666;" parent="FemHh_Qpc_Y6pgHLR_ku-1" vertex="1">
          <mxGeometry x="890" y="540" width="120" height="40" as="geometry" />
        </mxCell>
        <mxCell id="FemHh_Qpc_Y6pgHLR_ku-23" value="Книги" style="rounded=0;whiteSpace=wrap;html=1;fillColor=#f5f5f5;strokeColor=#666666;fontColor=#333333;" parent="FemHh_Qpc_Y6pgHLR_ku-1" vertex="1">
          <mxGeometry x="890" y="480" width="120" height="40" as="geometry" />
        </mxCell>
        <mxCell id="FemHh_Qpc_Y6pgHLR_ku-24" value="Заявки на книги" style="rounded=0;whiteSpace=wrap;html=1;fillColor=#dae8fc;strokeColor=#6c8ebf;" parent="FemHh_Qpc_Y6pgHLR_ku-1" vertex="1">
          <mxGeometry x="890" y="600" width="120" height="40" as="geometry" />
        </mxCell>
        <mxCell id="FemHh_Qpc_Y6pgHLR_ku-25" value="Выход" style="rounded=0;whiteSpace=wrap;html=1;fillColor=#f5f5f5;fontColor=#333333;strokeColor=#666666;" parent="FemHh_Qpc_Y6pgHLR_ku-1" vertex="1">
          <mxGeometry x="890" y="715" width="120" height="40" as="geometry" />
        </mxCell>
        <mxCell id="FemHh_Qpc_Y6pgHLR_ku-26" value="Редактировать" style="rounded=0;whiteSpace=wrap;html=1;fillColor=#f5f5f5;fontColor=#333333;strokeColor=#666666;" parent="FemHh_Qpc_Y6pgHLR_ku-1" vertex="1">
          <mxGeometry x="1160" y="715" width="120" height="40" as="geometry" />
        </mxCell>
        <mxCell id="FemHh_Qpc_Y6pgHLR_ku-27" value="Добавить" style="rounded=0;whiteSpace=wrap;html=1;fillColor=#f5f5f5;fontColor=#333333;strokeColor=#666666;" parent="FemHh_Qpc_Y6pgHLR_ku-1" vertex="1">
          <mxGeometry x="1030" y="715" width="120" height="40" as="geometry" />
        </mxCell>
        <mxCell id="FemHh_Qpc_Y6pgHLR_ku-28" value="Удалить" style="rounded=0;whiteSpace=wrap;html=1;fillColor=#f5f5f5;fontColor=#333333;strokeColor=#666666;" parent="FemHh_Qpc_Y6pgHLR_ku-1" vertex="1">
          <mxGeometry x="1290" y="715" width="120" height="40" as="geometry" />
        </mxCell>
        <mxCell id="FemHh_Qpc_Y6pgHLR_ku-29" value="" style="verticalLabelPosition=bottom;shadow=0;dashed=0;align=center;html=1;verticalAlign=top;strokeWidth=1;shape=mxgraph.mockup.navigation.scrollBar;strokeColor=#999999;barPos=20;fillColor2=#99ddff;strokeColor2=none;direction=north;rotation=0;" parent="FemHh_Qpc_Y6pgHLR_ku-1" vertex="1">
          <mxGeometry x="860" y="95" width="20" height="210" as="geometry" />
        </mxCell>
        <mxCell id="FemHh_Qpc_Y6pgHLR_ku-31" value="" style="verticalLabelPosition=bottom;shadow=0;dashed=0;align=center;html=1;verticalAlign=top;strokeWidth=1;shape=mxgraph.mockup.navigation.scrollBar;strokeColor=#999999;barPos=20;fillColor2=#99ddff;strokeColor2=none;direction=north;" parent="FemHh_Qpc_Y6pgHLR_ku-1" vertex="1">
          <mxGeometry x="1390" y="480" width="20" height="220" as="geometry" />
        </mxCell>
        <mxCell id="FemHh_Qpc_Y6pgHLR_ku-32" value="" style="rounded=0;whiteSpace=wrap;html=1;container=0;" parent="FemHh_Qpc_Y6pgHLR_ku-1" vertex="1">
          <mxGeometry x="1030" y="480" width="360" height="220" as="geometry" />
        </mxCell>
        <mxCell id="FemHh_Qpc_Y6pgHLR_ku-33" value="" style="group" parent="FemHh_Qpc_Y6pgHLR_ku-1" vertex="1" connectable="0">
          <mxGeometry x="1037.2" y="489" width="345.6" height="96.95" as="geometry" />
        </mxCell>
        <mxCell id="FemHh_Qpc_Y6pgHLR_ku-34" value="" style="rounded=0;whiteSpace=wrap;html=1;container=0;" parent="FemHh_Qpc_Y6pgHLR_ku-33" vertex="1">
          <mxGeometry width="345.6" height="96.95" as="geometry" />
        </mxCell>
        <mxCell id="FemHh_Qpc_Y6pgHLR_ku-35" value="&lt;div&gt;Читатель: текст&amp;nbsp;&lt;/div&gt;Номер читательского билета: текст&lt;div&gt;&lt;div&gt;Книга: текст&amp;nbsp;&lt;/div&gt;Автор: текст&lt;/div&gt;&lt;div&gt;Дата выдачи: 09.04.2024&amp;nbsp;&lt;/div&gt;&lt;div&gt;Дата возврата: 25.04.2024&lt;/div&gt;" style="text;html=1;align=left;verticalAlign=middle;whiteSpace=wrap;rounded=0;container=0;" parent="FemHh_Qpc_Y6pgHLR_ku-33" vertex="1">
          <mxGeometry x="3.920000000000001" y="12.468635170603676" width="206.40000000000006" height="72.13996062992128" as="geometry" />
        </mxCell>
        <mxCell id="FemHh_Qpc_Y6pgHLR_ku-36" value="" style="group" parent="FemHh_Qpc_Y6pgHLR_ku-1" vertex="1" connectable="0">
          <mxGeometry x="1037.68" y="593" width="345.6" height="97.91" as="geometry" />
        </mxCell>
        <mxCell id="FemHh_Qpc_Y6pgHLR_ku-37" value="" style="rounded=0;whiteSpace=wrap;html=1;container=0;" parent="FemHh_Qpc_Y6pgHLR_ku-36" vertex="1">
          <mxGeometry width="345.6" height="97.91" as="geometry" />
        </mxCell>
        <mxCell id="FemHh_Qpc_Y6pgHLR_ku-38" value="&lt;div&gt;Читатель: текст&amp;nbsp;&lt;/div&gt;Номер читательского билета: текст&lt;div&gt;&lt;div&gt;Книга: текст&amp;nbsp;&lt;/div&gt;Автор: текст&lt;/div&gt;&lt;div&gt;Дата выдачи: 09.04.2024&amp;nbsp;&lt;/div&gt;&lt;div&gt;Дата возврата: 25.04.2024&lt;/div&gt;" style="text;html=1;align=left;verticalAlign=middle;whiteSpace=wrap;rounded=0;container=0;" parent="FemHh_Qpc_Y6pgHLR_ku-36" vertex="1">
          <mxGeometry x="6.160000000000082" y="12.52666894132261" width="206.4" height="72.8523792026456" as="geometry" />
        </mxCell>
        <mxCell id="FemHh_Qpc_Y6pgHLR_ku-39" value="&lt;b&gt;&lt;font style=&quot;font-size: 16px;&quot;&gt;Заголовок&lt;/font&gt;&lt;/b&gt;" style="text;html=1;align=center;verticalAlign=middle;whiteSpace=wrap;rounded=0;" parent="FemHh_Qpc_Y6pgHLR_ku-1" vertex="1">
          <mxGeometry x="1030" y="445" width="90" height="30" as="geometry" />
        </mxCell>
        <mxCell id="FemHh_Qpc_Y6pgHLR_ku-50" value="" style="group;rotation=90;" parent="FemHh_Qpc_Y6pgHLR_ku-1" vertex="1" connectable="0">
          <mxGeometry x="452" y="95" width="358" height="210" as="geometry" />
        </mxCell>
        <mxCell id="FemHh_Qpc_Y6pgHLR_ku-51" value="" style="rounded=0;whiteSpace=wrap;html=1;" parent="FemHh_Qpc_Y6pgHLR_ku-50" vertex="1">
          <mxGeometry x="50" width="358" height="210" as="geometry" />
        </mxCell>
        <mxCell id="FemHh_Qpc_Y6pgHLR_ku-52" value="" style="group" parent="FemHh_Qpc_Y6pgHLR_ku-50" vertex="1" connectable="0">
          <mxGeometry x="57.637333333333345" y="10" width="343.68" height="40" as="geometry" />
        </mxCell>
        <mxCell id="FemHh_Qpc_Y6pgHLR_ku-53" value="" style="rounded=0;whiteSpace=wrap;html=1;" parent="FemHh_Qpc_Y6pgHLR_ku-52" vertex="1">
          <mxGeometry width="343.68" height="40" as="geometry" />
        </mxCell>
        <mxCell id="FemHh_Qpc_Y6pgHLR_ku-54" value="&lt;div&gt;Название: текст&amp;nbsp;&lt;/div&gt;Автор: текст" style="text;html=1;align=left;verticalAlign=middle;whiteSpace=wrap;rounded=0;" parent="FemHh_Qpc_Y6pgHLR_ku-52" vertex="1">
          <mxGeometry x="4.773333333333333" y="5" width="105.01333333333334" height="30" as="geometry" />
        </mxCell>
        <mxCell id="FemHh_Qpc_Y6pgHLR_ku-55" value="" style="group" parent="FemHh_Qpc_Y6pgHLR_ku-50" vertex="1" connectable="0">
          <mxGeometry x="57.637333333333345" y="60" width="343.68" height="40" as="geometry" />
        </mxCell>
        <mxCell id="FemHh_Qpc_Y6pgHLR_ku-56" value="" style="rounded=0;whiteSpace=wrap;html=1;" parent="FemHh_Qpc_Y6pgHLR_ku-55" vertex="1">
          <mxGeometry width="343.68" height="40" as="geometry" />
        </mxCell>
        <mxCell id="FemHh_Qpc_Y6pgHLR_ku-57" value="&lt;div&gt;Название: текст&amp;nbsp;&lt;/div&gt;Автор: текст" style="text;html=1;align=left;verticalAlign=middle;whiteSpace=wrap;rounded=0;" parent="FemHh_Qpc_Y6pgHLR_ku-55" vertex="1">
          <mxGeometry x="4.773333333333333" y="5" width="105.01333333333334" height="30" as="geometry" />
        </mxCell>
        <mxCell id="FemHh_Qpc_Y6pgHLR_ku-58" value="" style="group" parent="FemHh_Qpc_Y6pgHLR_ku-50" vertex="1" connectable="0">
          <mxGeometry x="57.637333333333345" y="110" width="343.68" height="40" as="geometry" />
        </mxCell>
        <mxCell id="FemHh_Qpc_Y6pgHLR_ku-59" value="" style="rounded=0;whiteSpace=wrap;html=1;" parent="FemHh_Qpc_Y6pgHLR_ku-58" vertex="1">
          <mxGeometry width="343.68" height="40" as="geometry" />
        </mxCell>
        <mxCell id="FemHh_Qpc_Y6pgHLR_ku-60" value="&lt;div&gt;Название: текст&amp;nbsp;&lt;/div&gt;Автор: текст" style="text;html=1;align=left;verticalAlign=middle;whiteSpace=wrap;rounded=0;" parent="FemHh_Qpc_Y6pgHLR_ku-58" vertex="1">
          <mxGeometry x="4.773333333333333" y="5" width="105.01333333333334" height="30" as="geometry" />
        </mxCell>
        <mxCell id="FemHh_Qpc_Y6pgHLR_ku-61" value="" style="group" parent="FemHh_Qpc_Y6pgHLR_ku-50" vertex="1" connectable="0">
          <mxGeometry x="57.637333333333345" y="160" width="343.68" height="40" as="geometry" />
        </mxCell>
        <mxCell id="FemHh_Qpc_Y6pgHLR_ku-62" value="" style="rounded=0;whiteSpace=wrap;html=1;" parent="FemHh_Qpc_Y6pgHLR_ku-61" vertex="1">
          <mxGeometry width="343.68" height="40" as="geometry" />
        </mxCell>
        <mxCell id="FemHh_Qpc_Y6pgHLR_ku-63" value="&lt;div&gt;Название: текст&amp;nbsp;&lt;/div&gt;Автор: текст" style="text;html=1;align=left;verticalAlign=middle;whiteSpace=wrap;rounded=0;" parent="FemHh_Qpc_Y6pgHLR_ku-61" vertex="1">
          <mxGeometry x="4.773333333333333" y="5" width="105.01333333333334" height="30" as="geometry" />
        </mxCell>
        <mxCell id="FemHh_Qpc_Y6pgHLR_ku-64" value="&lt;b&gt;&lt;font style=&quot;font-size: 16px;&quot;&gt;Заголовок&lt;/font&gt;&lt;/b&gt;" style="text;html=1;align=center;verticalAlign=middle;whiteSpace=wrap;rounded=0;" parent="FemHh_Qpc_Y6pgHLR_ku-1" vertex="1">
          <mxGeometry x="502" y="60" width="90" height="30" as="geometry" />
        </mxCell>
        <mxCell id="FemHh_Qpc_Y6pgHLR_ku-65" value="" style="group" parent="FemHh_Qpc_Y6pgHLR_ku-1" vertex="1" connectable="0">
          <mxGeometry x="10" y="20" width="270" height="370" as="geometry" />
        </mxCell>
        <mxCell id="FemHh_Qpc_Y6pgHLR_ku-66" value="Авторизация" style="strokeWidth=1;shadow=0;dashed=0;align=center;html=1;shape=mxgraph.mockup.containers.window;align=left;verticalAlign=top;spacingLeft=8;strokeColor2=#008cff;strokeColor3=#c4c4c4;fontColor=#666666;mainText=;fontSize=17;labelBackgroundColor=none;whiteSpace=wrap;" parent="FemHh_Qpc_Y6pgHLR_ku-65" vertex="1">
          <mxGeometry width="270" height="370" as="geometry" />
        </mxCell>
        <mxCell id="FemHh_Qpc_Y6pgHLR_ku-67" value="" style="rounded=1;whiteSpace=wrap;html=1;container=0;" parent="FemHh_Qpc_Y6pgHLR_ku-65" vertex="1">
          <mxGeometry x="30" y="50" width="210" height="300" as="geometry" />
        </mxCell>
        <mxCell id="FemHh_Qpc_Y6pgHLR_ku-68" value="&lt;font style=&quot;font-size: 14px;&quot;&gt;&lt;b&gt;Заголовок&lt;/b&gt;&lt;/font&gt;" style="text;html=1;align=center;verticalAlign=middle;whiteSpace=wrap;rounded=0;container=0;" parent="FemHh_Qpc_Y6pgHLR_ku-65" vertex="1">
          <mxGeometry x="100" y="53" width="70" height="30" as="geometry" />
        </mxCell>
        <mxCell id="FemHh_Qpc_Y6pgHLR_ku-69" value="Логин" style="text;html=1;align=center;verticalAlign=middle;whiteSpace=wrap;rounded=0;container=0;" parent="FemHh_Qpc_Y6pgHLR_ku-65" vertex="1">
          <mxGeometry x="55" y="90" width="60" height="30" as="geometry" />
        </mxCell>
        <mxCell id="FemHh_Qpc_Y6pgHLR_ku-70" value="" style="rounded=0;whiteSpace=wrap;html=1;container=0;" parent="FemHh_Qpc_Y6pgHLR_ku-65" vertex="1">
          <mxGeometry x="55" y="120" width="155" height="30" as="geometry" />
        </mxCell>
        <mxCell id="FemHh_Qpc_Y6pgHLR_ku-71" value="Пароль" style="text;html=1;align=center;verticalAlign=middle;whiteSpace=wrap;rounded=0;container=0;" parent="FemHh_Qpc_Y6pgHLR_ku-65" vertex="1">
          <mxGeometry x="55" y="160" width="60" height="30" as="geometry" />
        </mxCell>
        <mxCell id="FemHh_Qpc_Y6pgHLR_ku-72" value="" style="rounded=0;whiteSpace=wrap;html=1;container=0;" parent="FemHh_Qpc_Y6pgHLR_ku-65" vertex="1">
          <mxGeometry x="55" y="190" width="155" height="30" as="geometry" />
        </mxCell>
        <mxCell id="FemHh_Qpc_Y6pgHLR_ku-73" value="Войти" style="rounded=0;whiteSpace=wrap;html=1;fillColor=#f5f5f5;fontColor=#333333;strokeColor=#666666;container=0;" parent="FemHh_Qpc_Y6pgHLR_ku-65" vertex="1">
          <mxGeometry x="55" y="240" width="155" height="30" as="geometry" />
        </mxCell>
        <mxCell id="FemHh_Qpc_Y6pgHLR_ku-74" value="Новый читатель" style="rounded=0;whiteSpace=wrap;html=1;fillColor=#f5f5f5;fontColor=#333333;strokeColor=#666666;container=0;" parent="FemHh_Qpc_Y6pgHLR_ku-65" vertex="1">
          <mxGeometry x="55" y="290" width="155" height="30" as="geometry" />
        </mxCell>
        <mxCell id="FemHh_Qpc_Y6pgHLR_ku-75" value="" style="strokeWidth=1;shadow=0;dashed=0;align=center;html=1;shape=mxgraph.mockup.forms.pwField;strokeColor=#999999;mainText=;align=left;fontColor=#666666;fontSize=17;spacingLeft=3;" parent="FemHh_Qpc_Y6pgHLR_ku-65" vertex="1">
          <mxGeometry x="55" y="190" width="155" height="30" as="geometry" />
        </mxCell>
        <mxCell id="q_7ecniDLf_A3S9yphyU-0" style="edgeStyle=orthogonalEdgeStyle;rounded=0;orthogonalLoop=1;jettySize=auto;html=1;exitX=1;exitY=0.5;exitDx=0;exitDy=0;entryX=-0.004;entryY=0.05;entryDx=0;entryDy=0;entryPerimeter=0;" edge="1" parent="FemHh_Qpc_Y6pgHLR_ku-1" source="FemHh_Qpc_Y6pgHLR_ku-74" target="FemHh_Qpc_Y6pgHLR_ku-2">
          <mxGeometry relative="1" as="geometry">
            <Array as="points">
              <mxPoint x="310" y="325" />
              <mxPoint x="310" y="35" />
            </Array>
          </mxGeometry>
        </mxCell>
      </root>
    </mxGraphModel>
  </diagram>
  <diagram id="1QJdb6h064v6ImLZ5QV1" name="Новый читатель">
    <mxGraphModel dx="1386" dy="791" grid="1" gridSize="10" guides="1" tooltips="1" connect="1" arrows="1" fold="1" page="1" pageScale="1" pageWidth="827" pageHeight="1169" math="0" shadow="0">
      <root>
        <mxCell id="0" />
        <mxCell id="1" parent="0" />
        <mxCell id="hGqr1jyP-XfMqp-TsgEO-1" value="Главная" style="strokeWidth=1;shadow=0;dashed=0;align=center;html=1;shape=mxgraph.mockup.containers.window;align=left;verticalAlign=top;spacingLeft=8;strokeColor2=#008cff;strokeColor3=#c4c4c4;fontColor=#666666;mainText=;fontSize=17;labelBackgroundColor=none;whiteSpace=wrap;" parent="1" vertex="1">
          <mxGeometry x="350" y="54" width="540" height="300" as="geometry" />
        </mxCell>
        <mxCell id="hGqr1jyP-XfMqp-TsgEO-2" value="" style="rounded=0;whiteSpace=wrap;html=1;" parent="1" vertex="1">
          <mxGeometry x="350" y="84" width="140" height="270" as="geometry" />
        </mxCell>
        <mxCell id="hGqr1jyP-XfMqp-TsgEO-4" value="Книги" style="rounded=0;whiteSpace=wrap;html=1;fillColor=#f5f5f5;strokeColor=#666666;fontColor=#333333;" parent="1" vertex="1">
          <mxGeometry x="360" y="129" width="120" height="40" as="geometry" />
        </mxCell>
        <mxCell id="hGqr1jyP-XfMqp-TsgEO-6" value="Выход" style="rounded=0;whiteSpace=wrap;html=1;fillColor=#f5f5f5;fontColor=#333333;strokeColor=#666666;" parent="1" vertex="1">
          <mxGeometry x="360" y="300" width="120" height="40" as="geometry" />
        </mxCell>
        <mxCell id="hGqr1jyP-XfMqp-TsgEO-10" value="" style="verticalLabelPosition=bottom;shadow=0;dashed=0;align=center;html=1;verticalAlign=top;strokeWidth=1;shape=mxgraph.mockup.navigation.scrollBar;strokeColor=#999999;barPos=20;fillColor2=#99ddff;strokeColor2=none;direction=north;rotation=0;" parent="1" vertex="1">
          <mxGeometry x="860" y="129" width="20" height="210" as="geometry" />
        </mxCell>
        <mxCell id="hGqr1jyP-XfMqp-TsgEO-25" value="&lt;b&gt;&lt;font style=&quot;font-size: 16px;&quot;&gt;Заголовок&lt;/font&gt;&lt;/b&gt;" style="text;html=1;align=center;verticalAlign=middle;whiteSpace=wrap;rounded=0;" parent="1" vertex="1">
          <mxGeometry x="502" y="94" width="90" height="30" as="geometry" />
        </mxCell>
        <mxCell id="hGqr1jyP-XfMqp-TsgEO-12" value="" style="rounded=0;whiteSpace=wrap;html=1;" parent="1" vertex="1">
          <mxGeometry x="502" y="129" width="358" height="210" as="geometry" />
        </mxCell>
        <mxCell id="hGqr1jyP-XfMqp-TsgEO-13" value="" style="group" parent="1" vertex="1" connectable="0">
          <mxGeometry x="509.63733333333334" y="139" width="343.68" height="40" as="geometry" />
        </mxCell>
        <mxCell id="hGqr1jyP-XfMqp-TsgEO-14" value="" style="rounded=0;whiteSpace=wrap;html=1;" parent="hGqr1jyP-XfMqp-TsgEO-13" vertex="1">
          <mxGeometry width="343.68" height="40" as="geometry" />
        </mxCell>
        <mxCell id="hGqr1jyP-XfMqp-TsgEO-15" value="&lt;div&gt;Название: текст&amp;nbsp;&lt;/div&gt;Автор: текст" style="text;html=1;align=left;verticalAlign=middle;whiteSpace=wrap;rounded=0;" parent="hGqr1jyP-XfMqp-TsgEO-13" vertex="1">
          <mxGeometry x="4.773333333333333" y="5" width="105.01333333333334" height="30" as="geometry" />
        </mxCell>
        <mxCell id="hGqr1jyP-XfMqp-TsgEO-26" value="" style="group" parent="1" vertex="1" connectable="0">
          <mxGeometry x="10" y="20" width="270" height="370" as="geometry" />
        </mxCell>
        <mxCell id="hGqr1jyP-XfMqp-TsgEO-27" value="Авторизация" style="strokeWidth=1;shadow=0;dashed=0;align=center;html=1;shape=mxgraph.mockup.containers.window;align=left;verticalAlign=top;spacingLeft=8;strokeColor2=#008cff;strokeColor3=#c4c4c4;fontColor=#666666;mainText=;fontSize=17;labelBackgroundColor=none;whiteSpace=wrap;" parent="hGqr1jyP-XfMqp-TsgEO-26" vertex="1">
          <mxGeometry width="270" height="370" as="geometry" />
        </mxCell>
        <mxCell id="hGqr1jyP-XfMqp-TsgEO-28" value="" style="rounded=1;whiteSpace=wrap;html=1;container=0;" parent="hGqr1jyP-XfMqp-TsgEO-26" vertex="1">
          <mxGeometry x="30" y="50" width="210" height="300" as="geometry" />
        </mxCell>
        <mxCell id="hGqr1jyP-XfMqp-TsgEO-29" value="&lt;font style=&quot;font-size: 14px;&quot;&gt;&lt;b&gt;Заголовок&lt;/b&gt;&lt;/font&gt;" style="text;html=1;align=center;verticalAlign=middle;whiteSpace=wrap;rounded=0;container=0;" parent="hGqr1jyP-XfMqp-TsgEO-26" vertex="1">
          <mxGeometry x="100" y="53" width="70" height="30" as="geometry" />
        </mxCell>
        <mxCell id="hGqr1jyP-XfMqp-TsgEO-30" value="Логин" style="text;html=1;align=center;verticalAlign=middle;whiteSpace=wrap;rounded=0;container=0;" parent="hGqr1jyP-XfMqp-TsgEO-26" vertex="1">
          <mxGeometry x="55" y="90" width="60" height="30" as="geometry" />
        </mxCell>
        <mxCell id="hGqr1jyP-XfMqp-TsgEO-31" value="" style="rounded=0;whiteSpace=wrap;html=1;container=0;" parent="hGqr1jyP-XfMqp-TsgEO-26" vertex="1">
          <mxGeometry x="55" y="120" width="155" height="30" as="geometry" />
        </mxCell>
        <mxCell id="hGqr1jyP-XfMqp-TsgEO-32" value="Пароль" style="text;html=1;align=center;verticalAlign=middle;whiteSpace=wrap;rounded=0;container=0;" parent="hGqr1jyP-XfMqp-TsgEO-26" vertex="1">
          <mxGeometry x="55" y="160" width="60" height="30" as="geometry" />
        </mxCell>
        <mxCell id="hGqr1jyP-XfMqp-TsgEO-33" value="" style="rounded=0;whiteSpace=wrap;html=1;container=0;" parent="hGqr1jyP-XfMqp-TsgEO-26" vertex="1">
          <mxGeometry x="55" y="190" width="155" height="30" as="geometry" />
        </mxCell>
        <mxCell id="hGqr1jyP-XfMqp-TsgEO-34" value="Войти" style="rounded=0;whiteSpace=wrap;html=1;fillColor=#f5f5f5;fontColor=#333333;strokeColor=#666666;container=0;" parent="hGqr1jyP-XfMqp-TsgEO-26" vertex="1">
          <mxGeometry x="55" y="240" width="155" height="30" as="geometry" />
        </mxCell>
        <mxCell id="hGqr1jyP-XfMqp-TsgEO-35" value="Новый читатель" style="rounded=0;whiteSpace=wrap;html=1;fillColor=#f5f5f5;fontColor=#333333;strokeColor=#666666;container=0;" parent="hGqr1jyP-XfMqp-TsgEO-26" vertex="1">
          <mxGeometry x="55" y="290" width="155" height="30" as="geometry" />
        </mxCell>
        <mxCell id="hGqr1jyP-XfMqp-TsgEO-36" value="********" style="strokeWidth=1;shadow=0;dashed=0;align=center;html=1;shape=mxgraph.mockup.forms.pwField;strokeColor=#999999;mainText=;align=left;fontColor=#666666;fontSize=17;spacingLeft=3;" parent="hGqr1jyP-XfMqp-TsgEO-26" vertex="1">
          <mxGeometry x="55" y="190" width="155" height="30" as="geometry" />
        </mxCell>
        <mxCell id="hGqr1jyP-XfMqp-TsgEO-16" value="" style="group" parent="1" vertex="1" connectable="0">
          <mxGeometry x="509.63733333333334" y="189" width="343.68" height="40" as="geometry" />
        </mxCell>
        <mxCell id="hGqr1jyP-XfMqp-TsgEO-17" value="" style="rounded=0;whiteSpace=wrap;html=1;" parent="hGqr1jyP-XfMqp-TsgEO-16" vertex="1">
          <mxGeometry width="343.68" height="40" as="geometry" />
        </mxCell>
        <mxCell id="hGqr1jyP-XfMqp-TsgEO-18" value="&lt;div&gt;Название: текст&amp;nbsp;&lt;/div&gt;Автор: текст" style="text;html=1;align=left;verticalAlign=middle;whiteSpace=wrap;rounded=0;" parent="hGqr1jyP-XfMqp-TsgEO-16" vertex="1">
          <mxGeometry x="4.773333333333333" y="5" width="105.01333333333334" height="30" as="geometry" />
        </mxCell>
        <mxCell id="hGqr1jyP-XfMqp-TsgEO-19" value="" style="group" parent="1" vertex="1" connectable="0">
          <mxGeometry x="509.63733333333334" y="239" width="343.68" height="40" as="geometry" />
        </mxCell>
        <mxCell id="hGqr1jyP-XfMqp-TsgEO-20" value="" style="rounded=0;whiteSpace=wrap;html=1;" parent="hGqr1jyP-XfMqp-TsgEO-19" vertex="1">
          <mxGeometry width="343.68" height="40" as="geometry" />
        </mxCell>
        <mxCell id="hGqr1jyP-XfMqp-TsgEO-21" value="&lt;div&gt;Название: текст&amp;nbsp;&lt;/div&gt;Автор: текст" style="text;html=1;align=left;verticalAlign=middle;whiteSpace=wrap;rounded=0;" parent="hGqr1jyP-XfMqp-TsgEO-19" vertex="1">
          <mxGeometry x="4.773333333333333" y="5" width="105.01333333333334" height="30" as="geometry" />
        </mxCell>
        <mxCell id="hGqr1jyP-XfMqp-TsgEO-22" value="" style="group" parent="1" vertex="1" connectable="0">
          <mxGeometry x="509.63733333333334" y="289" width="343.68" height="40" as="geometry" />
        </mxCell>
        <mxCell id="hGqr1jyP-XfMqp-TsgEO-23" value="" style="rounded=0;whiteSpace=wrap;html=1;" parent="hGqr1jyP-XfMqp-TsgEO-22" vertex="1">
          <mxGeometry width="343.68" height="40" as="geometry" />
        </mxCell>
        <mxCell id="hGqr1jyP-XfMqp-TsgEO-24" value="&lt;div&gt;Название: текст&amp;nbsp;&lt;/div&gt;Автор: текст" style="text;html=1;align=left;verticalAlign=middle;whiteSpace=wrap;rounded=0;" parent="hGqr1jyP-XfMqp-TsgEO-22" vertex="1">
          <mxGeometry x="4.773333333333333" y="5" width="105.01333333333334" height="30" as="geometry" />
        </mxCell>
      </root>
    </mxGraphModel>
  </diagram>
</mxfile>
